<svg width="24" height="24" viewBox="0 0 24 24" fill="none" xmlns="http://www.w3.org/2000/svg">
<path d="M0 6.19354C0 5.76597 0.346618 5.41935 0.774193 5.41935H1.54839V10.0645H0.774193C0.346618 10.0645 0 9.71789 0 9.29032V6.19354Z" fill="#60A01C"/>
<path fill-rule="evenodd" clip-rule="evenodd" d="M3.2296 0.907035C2.32258 1.81406 2.32258 3.27389 2.32258 6.19355V15.4839C2.32258 18.4036 2.32258 19.8634 3.2296 20.7704C3.30983 20.8506 3.39437 20.9238 3.48387 20.9904V22.4516C3.48387 23.3068 4.17711 24 5.03226 24H6.58064C7.4358 24 8.12903 23.3068 8.12903 22.4516V21.6774L15.4839 21.6774C15.6159 21.6774 15.7449 21.6774 15.871 21.6774V22.4516C15.871 23.3068 16.5642 24 17.4194 24H18.9677C19.8229 24 20.5161 23.3068 20.5161 22.4516V20.9904C20.6056 20.9238 20.6902 20.8506 20.7704 20.7704C21.6774 19.8634 21.6774 18.4036 21.6774 15.4839V6.19355C21.6774 3.27389 21.6774 1.81406 20.7704 0.907035C19.8634 1.12724e-05 18.4035 7.46242e-06 15.4839 0L8.51611 0C5.59645 7.46242e-06 4.13662 1.12724e-05 3.2296 0.907035ZM4.44377 2.74863C4.25806 3.0928 4.25806 3.54833 4.25806 4.45937V9.86325C4.25806 10.7743 4.25806 11.2298 4.44377 11.574C4.58723 11.8399 4.80532 12.058 5.07119 12.2014C5.41537 12.3871 5.87089 12.3871 6.78194 12.3871H17.2181C18.1291 12.3871 18.5846 12.3871 18.9288 12.2014C19.1947 12.058 19.4128 11.8399 19.5562 11.574C19.7419 11.2298 19.7419 10.7743 19.7419 9.86325V4.45937C19.7419 3.54833 19.7419 3.0928 19.5562 2.74863C19.4128 2.48276 19.1947 2.26466 18.9288 2.12121C18.5846 1.9355 18.1291 1.9355 17.2181 1.9355H6.78194C5.87089 1.9355 5.41537 1.9355 5.07119 2.12121C4.80532 2.26466 4.58723 2.48276 4.44377 2.74863ZM7.73305 16.6929C7.73305 17.6537 6.95413 18.4326 5.99329 18.4326C5.03245 18.4326 4.25353 17.6537 4.25353 16.6929C4.25353 15.732 5.03245 14.9531 5.99329 14.9531C6.95413 14.9531 7.73305 15.732 7.73305 16.6929ZM18.1369 18.4326C19.0978 18.4326 19.8767 17.6537 19.8767 16.6929C19.8767 15.732 19.0978 14.9531 18.1369 14.9531C17.1761 14.9531 16.3972 15.732 16.3972 16.6929C16.3972 17.6537 17.1761 18.4326 18.1369 18.4326Z" fill="#60A01C"/>
<path d="M24 6.19354C24 5.76597 23.6534 5.41935 23.2258 5.41935H22.4516V10.0645H23.2258C23.6534 10.0645 24 9.71789 24 9.29032V6.19354Z" fill="#60A01C"/>
</svg>
