<svg width="24" height="32" viewBox="0 0 24 32" fill="none" xmlns="http://www.w3.org/2000/svg">
<path fill-rule="evenodd" clip-rule="evenodd" d="M2.5 14.3773C2.5 12.5675 3.5976 10.9421 5.26663 10.2803C9.59454 8.56433 14.4055 8.56433 18.7334 10.2803C20.4024 10.9421 21.5 12.5675 21.5 14.3773V20.5518C21.5 24.698 21.5 26.7711 20.2648 28.0922C20.2047 28.1564 20.1429 28.2188 20.0792 28.2794C19.7619 28.5816 19.4009 28.8106 18.9774 28.984L20.6769 30.6993C20.9717 30.9968 20.9717 31.4792 20.6769 31.7768C20.3821 32.0743 19.9041 32.0743 19.6093 31.7768L17.2433 29.3889C16.074 29.5261 14.5769 29.5261 12.6081 29.5261H11.3919C9.71091 29.5261 8.37386 29.5261 7.29104 29.4407L4.3281 31.833C4.00253 32.0959 3.52747 32.0426 3.26702 31.714C3.00657 31.3854 3.05935 30.906 3.38492 30.6431L5.30879 29.0898C4.75869 28.9069 4.30725 28.6475 3.92076 28.2794C3.85714 28.2188 3.79527 28.1564 3.73522 28.0922C2.5 26.7711 2.5 24.698 2.5 20.5518V14.3773ZM4.00982 18.3996C4.00982 16.6065 4.00982 15.7099 4.37199 15.0325C4.65175 14.5092 5.07708 14.0799 5.59557 13.7975C6.26678 13.432 7.15513 13.432 8.93184 13.432H14.9409C16.7176 13.432 17.606 13.432 18.2772 13.7975C18.7957 14.0799 19.221 14.5092 19.5008 15.0325C19.8629 15.7099 19.8629 16.6065 19.8629 18.3996V19.0387C19.8629 19.487 19.8629 19.7111 19.7724 19.8805C19.7025 20.0113 19.5961 20.1186 19.4665 20.1892C19.2987 20.2806 19.0766 20.2806 18.6324 20.2806H5.24033C4.79615 20.2806 4.57406 20.2806 4.40626 20.1892C4.27664 20.1186 4.1703 20.0113 4.10036 19.8805C4.00982 19.7111 4.00982 19.487 4.00982 19.0387V18.3996ZM7.5891 25.7592C8.52601 25.7592 9.28553 24.9926 9.28553 24.047C9.28553 23.1014 8.52601 22.3349 7.5891 22.3349C6.65219 22.3349 5.89267 23.1014 5.89267 24.047C5.89267 24.9926 6.65219 25.7592 7.5891 25.7592ZM18.1071 24.047C18.1071 24.9926 17.3476 25.7592 16.4106 25.7592C15.4737 25.7592 14.7142 24.9926 14.7142 24.047C14.7142 23.1014 15.4737 22.3349 16.4106 22.3349C17.3476 22.3349 18.1071 23.1014 18.1071 24.047ZM9.96392 10.6924C9.58916 10.6924 9.28535 10.999 9.28535 11.3772C9.28535 11.7555 9.58916 12.0621 9.96392 12.0621H14.0353C14.4101 12.0621 14.7139 11.7555 14.7139 11.3772C14.7139 10.999 14.4101 10.6924 14.0353 10.6924H9.96392Z" fill="#FBC70A"/>
<path fill-rule="evenodd" clip-rule="evenodd" d="M12.3938 0.155755C12.1236 -0.0519183 11.7493 -0.0519183 11.4791 0.155755L6.57214 3.92719C6.24916 4.17544 6.17854 4.63703 6.41229 4.97204L7.56958 6.63062C7.10572 6.69982 6.63023 6.77945 6.13963 6.86949C5.72943 6.94477 5.45736 7.34141 5.53195 7.75541C5.60654 8.16941 5.99954 8.444 6.40974 8.36871C7.26552 8.21166 8.07096 8.08769 8.84727 7.9968C8.9483 8.00628 9.05151 7.99534 9.15039 7.96284C11.0621 7.75843 12.8109 7.75846 14.7225 7.96286C14.8214 7.99534 14.9245 8.00627 15.0255 7.99681C15.8019 8.0877 16.6074 8.21167 17.4633 8.36872C17.8735 8.44399 18.2665 8.16939 18.3411 7.75539C18.4157 7.34139 18.1436 6.94475 17.7334 6.86948C17.2427 6.77945 16.7672 6.69982 16.3033 6.63062L17.4606 4.97204C17.6943 4.63703 17.6237 4.17544 17.3007 3.92719L12.3938 0.155755ZM14.6041 6.41922L15.8074 4.69479L11.9364 1.71959L8.06548 4.69479L9.2687 6.4192C11.0884 6.24123 12.7845 6.24125 14.6041 6.41922Z" fill="#FBC70A"/>
<mask id="mask0_1834_5860" style="mask-type:alpha" maskUnits="userSpaceOnUse" x="2" y="0" width="20" height="32">
<path fill-rule="evenodd" clip-rule="evenodd" d="M2.5 14.3773C2.5 12.5675 3.5976 10.9421 5.26663 10.2803C9.59454 8.56433 14.4055 8.56433 18.7334 10.2803C20.4024 10.9421 21.5 12.5675 21.5 14.3773V20.5518C21.5 24.698 21.5 26.7711 20.2648 28.0922C20.2047 28.1564 20.1429 28.2188 20.0792 28.2794C19.7619 28.5816 19.4009 28.8106 18.9774 28.984L20.6769 30.6993C20.9717 30.9968 20.9717 31.4792 20.6769 31.7768C20.3821 32.0743 19.9041 32.0743 19.6093 31.7768L17.2433 29.3889C16.074 29.5261 14.5769 29.5261 12.6081 29.5261H11.3919C9.71091 29.5261 8.37386 29.5261 7.29104 29.4407L4.3281 31.833C4.00253 32.0959 3.52747 32.0426 3.26702 31.714C3.00657 31.3854 3.05935 30.906 3.38492 30.6431L5.30879 29.0898C4.75869 28.9069 4.30725 28.6475 3.92076 28.2794C3.85714 28.2188 3.79527 28.1564 3.73522 28.0922C2.5 26.7711 2.5 24.698 2.5 20.5518V14.3773ZM4.00982 18.3996C4.00982 16.6065 4.00982 15.7099 4.37199 15.0325C4.65175 14.5092 5.07708 14.0799 5.59557 13.7975C6.26678 13.432 7.15513 13.432 8.93184 13.432H14.9409C16.7176 13.432 17.606 13.432 18.2772 13.7975C18.7957 14.0799 19.221 14.5092 19.5008 15.0325C19.8629 15.7099 19.8629 16.6065 19.8629 18.3996V19.0387C19.8629 19.487 19.8629 19.7111 19.7724 19.8805C19.7025 20.0113 19.5961 20.1186 19.4665 20.1892C19.2987 20.2806 19.0766 20.2806 18.6324 20.2806H5.24033C4.79615 20.2806 4.57406 20.2806 4.40626 20.1892C4.27664 20.1186 4.1703 20.0113 4.10036 19.8805C4.00982 19.7111 4.00982 19.487 4.00982 19.0387V18.3996ZM7.5891 25.7592C8.52601 25.7592 9.28553 24.9926 9.28553 24.047C9.28553 23.1014 8.52601 22.3349 7.5891 22.3349C6.65219 22.3349 5.89267 23.1014 5.89267 24.047C5.89267 24.9926 6.65219 25.7592 7.5891 25.7592ZM18.1071 24.047C18.1071 24.9926 17.3476 25.7592 16.4106 25.7592C15.4737 25.7592 14.7142 24.9926 14.7142 24.047C14.7142 23.1014 15.4737 22.3349 16.4106 22.3349C17.3476 22.3349 18.1071 23.1014 18.1071 24.047ZM9.96392 10.6924C9.58916 10.6924 9.28535 10.999 9.28535 11.3772C9.28535 11.7555 9.58916 12.0621 9.96392 12.0621H14.0353C14.4101 12.0621 14.7139 11.7555 14.7139 11.3772C14.7139 10.999 14.4101 10.6924 14.0353 10.6924H9.96392Z" fill="#FBC70A"/>
<path fill-rule="evenodd" clip-rule="evenodd" d="M12.3938 0.155755C12.1236 -0.0519183 11.7493 -0.0519183 11.4791 0.155755L6.57214 3.92719C6.24916 4.17544 6.17854 4.63703 6.41229 4.97204L7.56958 6.63062C7.10572 6.69982 6.63023 6.77945 6.13963 6.86949C5.72943 6.94477 5.45736 7.34141 5.53195 7.75541C5.60654 8.16941 5.99954 8.444 6.40974 8.36871C7.26552 8.21166 8.07096 8.08769 8.84727 7.9968C8.9483 8.00628 9.05151 7.99534 9.15039 7.96284C11.0621 7.75843 12.8109 7.75846 14.7225 7.96286C14.8214 7.99534 14.9245 8.00627 15.0255 7.99681C15.8019 8.0877 16.6074 8.21167 17.4633 8.36872C17.8735 8.44399 18.2665 8.16939 18.3411 7.75539C18.4157 7.34139 18.1436 6.94475 17.7334 6.86948C17.2427 6.77945 16.7672 6.69982 16.3033 6.63062L17.4606 4.97204C17.6943 4.63703 17.6237 4.17544 17.3007 3.92719L12.3938 0.155755ZM14.6041 6.41922L15.8074 4.69479L11.9364 1.71959L8.06548 4.69479L9.2687 6.4192C11.0884 6.24123 12.7845 6.24125 14.6041 6.41922Z" fill="#FBC70A"/>
</mask>
<g mask="url(#mask0_1834_5860)">
<path d="M2.5 21.1436H21.5V27.4293H2.5V21.1436Z" fill="#F35C22"/>
</g>
</svg>
