<svg width="20" height="32" viewBox="0 0 20 32" fill="none" xmlns="http://www.w3.org/2000/svg">
<path fill-rule="evenodd" clip-rule="evenodd" d="M1.39039 9.27367C0.5 10.1663 0.5 11.6029 0.5 14.4763V23.6191C0.5 26.4924 0.5 27.9291 1.3904 28.8217C1.46915 28.9006 1.55214 28.9726 1.64 29.0382L1.64 30.4762C1.64 31.3178 2.32053 32 3.16 32H4.68C5.51947 32 6.2 31.3178 6.2 30.4762V29.7142L13.42 29.7143C13.5496 29.7143 13.6762 29.7143 13.8 29.7142V30.4762C13.8 31.3178 14.4805 32 15.32 32H16.84C17.6795 32 18.36 31.3178 18.36 30.4762V29.0382C18.4479 28.9726 18.5309 28.9006 18.6096 28.8217C19.5 27.9291 19.5 26.4924 19.5 23.6191V14.4763C19.5 11.6029 19.5 10.1663 18.6096 9.27367C17.7192 8.38104 16.2861 8.38104 13.42 8.38103H6.57998C3.71385 8.38104 2.28079 8.38104 1.39039 9.27367ZM2.5823 11.086C2.4 11.4247 2.4 11.873 2.4 12.7696V18.0877C2.4 18.9843 2.4 19.4326 2.5823 19.7713C2.72313 20.0329 2.93723 20.2475 3.19822 20.3887C3.53609 20.5715 3.98326 20.5715 4.8776 20.5715H15.1224C16.0167 20.5715 16.4639 20.5715 16.8018 20.3887C17.0628 20.2475 17.2769 20.0329 17.4177 19.7713C17.6 19.4326 17.6 18.9843 17.6 18.0877V12.7696C17.6 11.873 17.6 11.4247 17.4177 11.086C17.2769 10.8244 17.0628 10.6097 16.8018 10.4686C16.4639 10.2858 16.0167 10.2858 15.1224 10.2858H4.8776C3.98326 10.2858 3.53609 10.2858 3.19822 10.4686C2.93723 10.6097 2.72313 10.8244 2.5823 11.086ZM5.82 24.811C5.82 25.7578 5.05441 26.5253 4.11 26.5253C3.16559 26.5253 2.4 25.7578 2.4 24.811C2.4 23.8643 3.16559 23.0968 4.11 23.0968C5.05441 23.0968 5.82 23.8643 5.82 24.811ZM15.89 26.5253C16.8344 26.5253 17.6 25.7578 17.6 24.811C17.6 23.8643 16.8344 23.0968 15.89 23.0968C14.9456 23.0968 14.18 23.8643 14.18 24.811C14.18 25.7578 14.9456 26.5253 15.89 26.5253Z" fill="#326EEA"/>
<path d="M11.551 0.121099C11.904 0.348643 12.0063 0.820043 11.7793 1.174L8.86784 5.71427H10.8619C10.8679 5.70386 10.8741 5.69353 10.8807 5.68331L14.3007 0.349991C14.5277 -0.00396632 14.9979 -0.106445 15.351 0.121099C15.704 0.348643 15.8063 0.820043 15.5793 1.174L12.6678 5.71427H14.9399C15.3596 5.71427 15.6999 6.05538 15.6999 6.47617C15.6999 6.89696 15.3596 7.23807 14.9399 7.23807H5.05991C4.64017 7.23807 4.29991 6.89696 4.29991 6.47617C4.29991 6.05538 4.64017 5.71427 5.05991 5.71427H7.06186C7.06786 5.70386 7.07415 5.69353 7.0807 5.68331L10.5007 0.349991C10.7277 -0.00396632 11.1979 -0.106445 11.551 0.121099Z" fill="#326EEA"/>
</svg>
