<svg width="34" height="32" viewBox="0 0 34 32" fill="none" xmlns="http://www.w3.org/2000/svg">
<path d="M1 13.9427H33" stroke="#2B2D33" stroke-width="1.75" stroke-linecap="round" stroke-linejoin="round"/>
<path d="M1 4H33" stroke="#2B2D33" stroke-width="1.75" stroke-linecap="round" stroke-linejoin="round"/>
<path d="M7.20845 25.4791L6.82314 24.5258V29.9274H6V23.5726H7.17342L8.86349 27.2493L10.5361 23.5726H11.692V29.9274H10.8688V24.5168L10.4748 25.4791L9.25755 28.1571H8.43441L7.20845 25.4791Z" fill="black"/>
<path d="M13.6905 23.5726H17.4997V24.3534H14.5136V26.2689H16.9743V27.0496H14.5136V29.1466H17.4997V29.9274H13.6905V23.5726Z" fill="black"/>
<path d="M23.1825 27.0496H20.0125V29.9274H19.1894V23.5726H20.0125V26.2689H23.1825V23.5726H24.0057V29.9274H23.1825V27.0496Z" fill="black"/>
<path d="M30.5303 30C30.1625 30 29.8298 29.9395 29.532 29.8184C29.2343 29.6913 28.9774 29.5068 28.7614 29.2647C28.5454 29.0165 28.3761 28.7079 28.2535 28.3387C28.1309 27.9695 28.0667 27.5398 28.0609 27.0496H27.0801V29.9274H26.257V23.5726H27.0801V26.2689H28.0609C28.0726 25.827 28.1397 25.4337 28.2623 25.0887C28.3849 24.7437 28.5542 24.4532 28.7702 24.2172C28.9862 23.9811 29.2431 23.8026 29.5408 23.6816C29.8385 23.5605 30.1684 23.5 30.5303 23.5C30.8981 23.5 31.2338 23.5635 31.5373 23.6906C31.8409 23.8177 32.1007 24.0054 32.3167 24.2535C32.5327 24.4956 32.6991 24.7982 32.8159 25.1613C32.9384 25.5184 32.9997 25.9299 32.9997 26.3959V26.9225C32.9997 27.4309 32.9384 27.8787 32.8159 28.2661C32.6991 28.6473 32.5327 28.9681 32.3167 29.2284C32.1007 29.4825 31.8409 29.6762 31.5373 29.8094C31.2338 29.9365 30.8981 30 30.5303 30ZM30.5303 29.183C30.7638 29.183 30.9798 29.1406 31.1783 29.0559C31.3768 28.9651 31.5461 28.8289 31.6862 28.6473C31.8322 28.4597 31.9431 28.2237 32.019 27.9392C32.1007 27.6548 32.1416 27.3159 32.1416 26.9225V26.3959C32.1416 26.051 32.1007 25.7484 32.019 25.4881C31.9431 25.2279 31.8322 25.013 31.6862 24.8436C31.5461 24.6681 31.3768 24.5379 31.1783 24.4532C30.9798 24.3624 30.7638 24.317 30.5303 24.317C30.0574 24.317 29.6692 24.4895 29.3656 24.8345C29.0679 25.1795 28.9191 25.7 28.9191 26.3959V26.9225C28.9191 27.3159 28.957 27.6548 29.0329 27.9392C29.1146 28.2176 29.2255 28.4507 29.3656 28.6383C29.5116 28.8259 29.6838 28.9651 29.8823 29.0559C30.0808 29.1406 30.2968 29.183 30.5303 29.183Z" fill="black"/>
</svg>
