<svg width="160" height="160" viewBox="0 0 160 160" fill="none" xmlns="http://www.w3.org/2000/svg">
<path d="M80 0L86.2731 16.3082L95.6072 1.53718L98.5782 18.7558L110.615 6.08964L110.169 23.557L124.446 13.4824L120.601 30.5273L136.569 23.4315L129.473 39.3988L146.518 35.5544L136.443 49.8306L153.91 49.3853L141.244 61.4218L158.463 64.3928L143.692 73.7269L160 80L143.692 86.2731L158.463 95.6072L141.244 98.5782L153.91 110.615L136.443 110.169L146.518 124.446L129.473 120.601L136.569 136.569L120.601 129.473L124.446 146.518L110.169 136.443L110.615 153.91L98.5782 141.244L95.6072 158.463L86.2731 143.692L80 160L73.7269 143.692L64.3928 158.463L61.4218 141.244L49.3853 153.91L49.8306 136.443L35.5544 146.518L39.3988 129.473L23.4315 136.569L30.5273 120.601L13.4824 124.446L23.557 110.169L6.08964 110.615L18.7558 98.5782L1.53718 95.6072L16.3082 86.2731L0 80L16.3082 73.7269L1.53718 64.3928L18.7558 61.4218L6.08964 49.3853L23.557 49.8306L13.4824 35.5544L30.5273 39.3988L23.4315 23.4315L39.3988 30.5273L35.5544 13.4824L49.8306 23.557L49.3853 6.08964L61.4218 18.7558L64.3928 1.53718L73.7269 16.3082L80 0Z" fill="#60A01C"/>
<path d="M33.4077 83.1569L24.1468 76.9567L26.4678 75.6167L33.1815 80.2853L33.2162 80.2653L32.1835 72.3167L34.3659 71.0567L36.0832 86.231L33.9008 87.491L33.4077 83.1569ZM44.7413 72.1332L42.1085 73.6532L41.0485 71.8173L48.3232 67.6173L49.3832 69.4532L46.7504 70.9732L50.6904 77.7975L48.6813 78.9575L44.7413 72.1332ZM58.0286 73.7917C56.7238 74.5451 55.4886 74.7656 54.3229 74.4532C53.1621 74.1227 52.1817 73.2646 51.3817 71.8789L51.1617 71.4979C50.7684 70.8166 50.5108 70.1571 50.3889 69.5192C50.2718 68.8632 50.2798 68.2504 50.4129 67.6809C50.5575 67.1047 50.8248 66.581 51.2146 66.1095C51.6094 65.6199 52.1185 65.1951 52.742 64.8351C54.0007 64.1084 55.2104 63.9104 56.3712 64.2409C57.532 64.5715 58.5257 65.4527 59.3524 66.8845L59.7724 67.612L53.6582 71.142C54.156 71.8707 54.6665 72.315 55.1898 72.4747C55.7131 72.6345 56.3039 72.5243 56.962 72.1443C58.0013 71.5443 58.4297 70.8197 58.2473 69.9705L60.3258 68.7705C60.6495 69.7845 60.6073 70.7248 60.1994 71.5916C59.803 72.4517 59.0794 73.1851 58.0286 73.7917ZM53.722 66.5325C53.1101 66.8858 52.7324 67.3117 52.5891 67.8101C52.4391 68.297 52.5146 68.9078 52.8155 69.6424L56.8685 67.3024C56.3944 66.6678 55.909 66.2937 55.4123 66.1801C54.909 66.055 54.3456 66.1725 53.722 66.5325ZM67.469 68.3414C66.1757 69.088 64.9263 69.2705 63.7206 68.8889C62.5149 68.5073 61.4154 67.4562 60.4221 65.7357L60.0021 65.0083C59.6221 64.3501 59.3025 63.7032 59.0433 63.0677C58.7775 62.4205 58.5969 61.8012 58.5017 61.2095C58.3998 60.6063 58.3923 60.0333 58.4792 59.4905C58.5709 58.9294 58.7662 58.401 59.065 57.9052C59.3376 57.4707 59.6386 57.1121 59.9681 56.8295C60.3092 56.5402 60.6718 56.2616 61.0559 55.9936C61.4516 55.719 61.8729 55.4219 62.3196 55.1024C62.7664 54.7828 63.2375 54.3723 63.7331 53.8706L64.7331 55.6026C64.3743 55.9945 64.0062 56.3303 63.6287 56.6098C63.2628 56.8826 62.9017 57.1373 62.5456 57.3737C62.1894 57.6101 61.8605 57.8539 61.559 58.1049C61.2624 58.3378 61.0164 58.6184 60.821 58.9467C60.5715 59.3679 60.4115 59.8375 60.3411 60.3554C60.2755 60.8552 60.3765 61.4435 60.6441 62.1203L60.6788 62.1003C60.759 61.546 60.9874 61.0215 61.3639 60.527C61.7337 60.0209 62.2131 59.5979 62.802 59.2579C63.3563 58.9379 63.9119 58.7403 64.4689 58.665C65.0374 58.5831 65.5867 58.6278 66.1167 58.7991C66.6582 58.9637 67.1689 59.2616 67.6488 59.6928C68.1335 60.1057 68.5726 60.6528 68.9659 61.3341L69.1859 61.7152C69.9526 63.0431 70.1831 64.2956 69.8774 65.4728C69.5651 66.6385 68.7623 67.5947 67.469 68.3414ZM66.409 66.5054C67.0441 66.1387 67.4273 65.6558 67.5586 65.0565C67.7014 64.4506 67.5395 63.7434 67.0728 62.9352L66.8528 62.5541C66.3928 61.7574 65.8647 61.2694 65.2686 61.0901C64.6657 60.8993 64.0525 60.9839 63.429 61.3439C62.8055 61.7039 62.4256 62.1926 62.2894 62.8101C62.1466 63.416 62.3052 64.1174 62.7652 64.9141L62.9852 65.2952C63.4452 66.0919 63.9766 66.5857 64.5794 66.7765C65.1756 66.9558 65.7855 66.8654 66.409 66.5054ZM72.4864 60.9643C71.8219 61.04 71.2451 60.9343 70.756 60.647C70.2717 60.3416 69.8562 59.8886 69.5095 59.2882C69.2429 58.8263 69.0755 58.3764 69.0074 57.9384C68.9326 57.4889 68.9754 57.0563 69.1356 56.6404C69.3007 56.2064 69.589 55.7859 70.0007 55.3789C70.4057 54.9603 70.9488 54.5544 71.6301 54.161L74.7478 52.361L79.7478 61.0213L77.7386 62.1813L76.1186 59.3754L75.0101 60.0154L74.629 60.2354L74.7248 63.9213L72.4731 65.2213L72.4864 60.9643ZM71.6227 58.0682C71.8493 58.4608 72.153 58.6935 72.5337 58.7662C72.9193 58.8207 73.4469 58.6546 74.1167 58.2679L75.1386 57.6779L73.7186 55.2184L72.6967 55.8084C72.0269 56.1951 71.6226 56.5748 71.4837 56.9475C71.3497 57.302 71.396 57.6756 71.6227 58.0682ZM81.3275 48.5622L84.7916 46.5622C85.4152 46.2022 85.9797 45.9533 86.4851 45.8154C86.9906 45.6775 87.4452 45.6383 87.849 45.6977C88.2461 45.7455 88.5948 45.8829 88.8952 46.1098C89.1955 46.3367 89.4524 46.6349 89.6657 47.0044C89.8724 47.3623 89.97 47.7448 89.9586 48.1517C89.9405 48.547 89.8174 48.9337 89.5892 49.3118L89.6092 49.3464C90.148 49.2663 90.6386 49.3295 91.0811 49.5359C91.5351 49.7356 91.8888 50.0549 92.1421 50.4937C92.5955 51.2789 92.6865 52.05 92.4154 52.807C92.1558 53.5573 91.3967 54.2958 90.138 55.0225L86.3275 57.2225L81.3275 48.5622ZM87.6226 48.3456C87.4626 48.0685 87.2354 47.9149 86.9408 47.8848C86.6579 47.848 86.2393 47.9896 85.685 48.3096L84.3167 49.0996L85.3567 50.9009L86.725 50.1109C87.2793 49.7909 87.6045 49.4877 87.7008 49.2011C87.8087 48.9079 87.7826 48.6228 87.6226 48.3456ZM89.939 51.5578C89.7657 51.2576 89.5193 51.0842 89.1999 51.0376C88.8854 50.9729 88.4626 51.0938 87.9314 51.4005L86.2167 52.3905L87.3567 54.365L89.0714 53.375C89.6026 53.0684 89.9221 52.7684 90.0299 52.4752C90.1427 52.1638 90.1124 51.858 89.939 51.5578ZM98.8902 50.2003C97.6546 50.9137 96.4656 51.1075 95.323 50.7818C94.1853 50.4379 93.1998 49.5443 92.3664 48.1009L92.1464 47.7199C91.7598 47.0502 91.5088 46.4022 91.3936 45.7759C91.2783 45.1496 91.2906 44.5575 91.4303 43.9995C91.5634 43.43 91.8191 42.9129 92.1974 42.4481C92.5806 41.9652 93.0782 41.547 93.6902 41.1937C94.256 40.867 94.8016 40.6521 95.327 40.5488C95.864 40.439 96.3651 40.4268 96.8302 40.5124C97.3068 40.5913 97.7409 40.7564 98.1323 41.0077C98.5353 41.2523 98.8914 41.5625 99.2007 41.9382L97.0876 43.1582C96.7672 42.8966 96.4234 42.7411 96.056 42.6914C95.6935 42.6236 95.2871 42.7197 94.8368 42.9797C94.2825 43.2997 93.9215 43.7544 93.7538 44.3439C93.5976 44.9267 93.7662 45.6454 94.2595 46.4999L94.4795 46.8809C94.7529 47.3544 95.0291 47.7261 95.3081 47.996C95.5987 48.2594 95.8906 48.4449 96.1838 48.5528C96.4819 48.6424 96.7731 48.6668 97.0573 48.6258C97.3532 48.5782 97.6396 48.4744 97.9168 48.3144C98.3671 48.0544 98.6502 47.7447 98.766 47.3853C98.8934 47.0192 98.9006 46.5917 98.7876 46.1027L100.901 44.8827C101.098 45.3845 101.209 45.8827 101.232 46.377C101.268 46.8648 101.204 47.3405 101.04 47.8043C100.888 48.2614 100.631 48.6951 100.267 49.1052C99.9149 49.5086 99.456 49.8737 98.8902 50.2003ZM107.808 45.0515C106.503 45.8048 105.268 46.0253 104.102 45.713C102.942 45.3824 101.961 44.5243 101.161 43.1387L100.941 42.7577C100.548 42.0764 100.29 41.4168 100.168 40.779C100.051 40.123 100.059 39.5102 100.192 38.9407C100.337 38.3645 100.604 37.8407 100.994 37.3693C101.389 36.8797 101.898 36.4549 102.522 36.0949C103.78 35.3682 104.99 35.1701 106.151 35.5007C107.312 35.8312 108.305 36.7124 109.132 38.1443L109.552 38.8717L103.438 42.4017C103.936 43.1305 104.446 43.5747 104.969 43.7345C105.493 43.8942 106.083 43.7841 106.742 43.4041C107.781 42.8041 108.209 42.0795 108.027 41.2302L110.105 40.0302C110.429 41.0442 110.387 41.9846 109.979 42.8514C109.583 43.7115 108.859 44.4448 107.808 45.0515ZM103.502 37.7923C102.89 38.1456 102.512 38.5715 102.369 39.0699C102.219 39.5568 102.294 40.1676 102.595 40.9022L106.648 38.5622C106.174 37.9276 105.689 37.5535 105.192 37.4399C104.689 37.3148 104.125 37.4323 103.502 37.7923ZM100.326 36.0922C99.9913 36.2856 99.6359 36.3368 99.2601 36.2458C98.8892 36.1367 98.607 35.9147 98.4137 35.5798C98.2204 35.2449 98.1725 34.8954 98.2701 34.5311C98.3726 34.1486 98.5913 33.8607 98.9261 33.6674C99.261 33.474 99.6139 33.4319 99.9848 33.5411C100.361 33.632 100.645 33.8449 100.839 34.1798C101.032 34.5147 101.077 34.8733 100.975 35.2558C100.877 35.6201 100.661 35.8989 100.326 36.0922ZM103.617 34.1922C103.282 34.3856 102.927 34.4368 102.551 34.3458C102.18 34.2367 101.898 34.0147 101.705 33.6798C101.511 33.3449 101.463 32.9954 101.561 32.6311C101.664 32.2486 101.882 31.9607 102.217 31.7674C102.552 31.574 102.905 31.5319 103.276 31.6411C103.652 31.732 103.936 31.9449 104.129 32.2798C104.323 32.6147 104.368 32.9733 104.266 33.3558C104.168 33.7201 103.952 33.9989 103.617 34.1922ZM39.0233 100.699L46.4711 96.3993L51.4711 105.06L49.462 106.22L45.522 99.3953L42.0925 101.375L46.0325 108.2L44.0233 109.36L39.0233 100.699ZM57.4527 101.837C56.1479 102.59 54.9126 102.811 53.7469 102.499C52.5861 102.168 51.6058 101.31 50.8058 99.9243L50.5858 99.5432C50.1924 98.862 49.9348 98.2024 49.8129 97.5646C49.7025 96.9201 49.7196 96.3098 49.8643 95.7336C50.0204 95.1508 50.2959 94.6145 50.6906 94.1249C51.0854 93.6353 51.606 93.2038 52.2527 92.8304C53.5575 92.0771 54.7903 91.8657 55.9511 92.1963C57.1168 92.5086 58.0996 93.3576 58.8996 94.7432L59.1196 95.1243C59.5129 95.8056 59.7648 96.4685 59.8751 97.1129C59.9971 97.7508 59.9799 98.3611 59.8238 98.9439C59.6791 99.5201 59.4037 100.056 58.9974 100.553C58.6027 101.042 58.0878 101.47 57.4527 101.837ZM56.3927 100.001C57.0278 99.6345 57.4109 99.1515 57.5422 98.5522C57.6784 97.9348 57.4998 97.1988 57.0065 96.3443L56.7865 95.9632C56.3065 95.1319 55.7651 94.6208 55.1622 94.4299C54.5527 94.2276 53.9362 94.3064 53.3127 94.6664C52.6776 95.0331 52.292 95.5252 52.1558 96.1426C52.0245 96.7419 52.2055 97.4688 52.6989 98.3232L52.9189 98.7043C53.3989 99.5357 53.9436 100.053 54.5531 100.255C55.1559 100.446 55.7691 100.361 56.3927 100.001ZM61.1565 97.2507L61.3297 97.1507C61.6646 96.9574 61.8677 96.7093 61.9391 96.4063C62.0154 96.0851 61.9906 95.7222 61.8648 95.3176C61.7439 94.8947 61.5491 94.4375 61.2807 93.9459C61.0171 93.436 60.7153 92.8866 60.3753 92.2977L58.6753 89.3533L65.2571 85.5533L70.2571 94.2135L68.248 95.3735L64.3079 88.5492L61.7445 90.0292L62.3845 91.1377C62.7712 91.8075 63.1448 92.5078 63.5052 93.2389C63.8706 93.9517 64.1069 94.6543 64.2142 95.3468C64.333 96.0326 64.2681 96.6936 64.0196 97.3298C63.7759 97.9477 63.2326 98.5 62.3897 98.9867L62.2165 99.0867L61.1565 97.2507ZM74.9843 91.4843L66.4682 84.854L68.6506 83.594L74.5835 88.3901L74.6181 88.3701L73.2579 80.934L75.3017 79.754L77.7117 94.5284L75.6679 95.7084L74.9843 91.4843ZM83.3228 83.2752C82.0296 84.0219 80.9434 84.2872 80.0642 84.0711C79.1851 83.8551 78.4089 83.164 77.7355 81.9977L76.1555 79.2611L78.1647 78.1011L79.6647 80.6991C80.0314 81.3342 80.4002 81.7063 80.7711 81.8155C81.1536 81.918 81.6508 81.7926 82.2628 81.4392C82.5746 81.2592 82.8624 81.0777 83.1262 80.8946C83.3833 80.6999 83.6082 80.5162 83.801 80.3433L81.421 76.2211L83.4301 75.0611L88.4301 83.7213L86.421 84.8813L84.861 82.1793C84.6682 82.3522 84.4433 82.5359 84.1862 82.7306C83.9224 82.9137 83.6346 83.0952 83.3228 83.2752ZM85.6737 73.7658L87.6829 72.6058L91.1829 78.6679L91.2175 78.6479L90.8698 70.7658L93.4679 69.2658L98.4679 77.926L96.4587 79.086L92.9587 73.0238L92.9241 73.0438L93.2718 80.926L90.6737 82.426L85.6737 73.7658ZM98.461 68.8309L95.8283 70.3509L94.7683 68.515L102.043 64.315L103.103 66.1509L100.47 67.6709L104.41 74.4952L102.401 75.6552L98.461 68.8309ZM111.575 70.5894C110.34 71.3028 109.151 71.4966 108.008 71.1709C106.87 70.827 105.885 69.9334 105.051 68.49L104.831 68.109C104.445 67.4393 104.194 66.7913 104.079 66.165C103.963 65.5387 103.976 64.9466 104.115 64.3886C104.248 63.8191 104.504 63.302 104.882 62.8372C105.266 62.3543 105.763 61.9361 106.375 61.5828C106.941 61.2561 107.487 61.0412 108.012 60.9379C108.549 60.8281 109.05 60.8159 109.515 60.9015C109.992 60.9804 110.426 61.1455 110.817 61.3968C111.22 61.6414 111.576 61.9516 111.886 62.3273L109.773 63.5473C109.452 63.2857 109.108 63.1302 108.741 63.0805C108.379 63.0127 107.972 63.1088 107.522 63.3688C106.968 63.6888 106.607 64.1435 106.439 64.733C106.283 65.3158 106.451 66.0345 106.945 66.889L107.165 67.27C107.438 67.7435 107.714 68.1152 107.993 68.3852C108.284 68.6485 108.576 68.834 108.869 68.9419C109.167 69.0315 109.458 69.0559 109.742 69.0149C110.038 68.9673 110.325 68.8635 110.602 68.7035C111.052 68.4435 111.335 68.1338 111.451 67.7744C111.578 67.4083 111.586 66.9808 111.473 66.4918L113.586 65.2718C113.783 65.7736 113.894 66.2718 113.917 66.7662C113.953 67.2539 113.889 67.7296 113.725 68.1934C113.573 68.6505 113.316 69.0842 112.952 69.4943C112.6 69.8977 112.141 70.2628 111.575 70.5894ZM115.99 63.5604C115.325 63.6362 114.748 63.5304 114.259 63.2432C113.775 62.9377 113.36 62.4848 113.013 61.8843C112.746 61.4224 112.579 60.9725 112.511 60.5346C112.436 60.0851 112.479 59.6524 112.639 59.2366C112.804 58.8025 113.092 58.382 113.504 57.975C113.909 57.5564 114.452 57.1505 115.133 56.7572L118.251 54.9572L123.251 63.6174L121.242 64.7774L119.622 61.9715L118.513 62.6115L118.132 62.8315L118.228 66.5174L115.977 67.8174L115.99 63.5604ZM115.126 60.6643C115.353 61.0569 115.656 61.2896 116.037 61.3623C116.423 61.4168 116.95 61.2507 117.62 60.8641L118.642 60.2741L117.222 57.8146L116.2 58.4046C115.53 58.7912 115.126 59.1709 114.987 59.5437C114.853 59.8982 114.899 60.2717 115.126 60.6643ZM85.9208 104.8C85.3927 104.658 84.9071 104.431 84.4641 104.117C84.026 103.785 83.6603 103.365 83.367 102.857C83.0736 102.348 82.8927 101.822 82.8241 101.276C82.7604 100.713 82.7969 100.176 82.9335 99.6658C83.0751 99.1376 83.3119 98.6544 83.644 98.2163C83.9695 97.7667 84.3862 97.3952 84.8943 97.1019C85.4024 96.8086 85.9291 96.6276 86.4746 96.559C87.02 96.4904 87.5568 96.5269 88.085 96.6684L89.7889 97.1396L90.2328 95.4284C90.3743 94.9003 90.6111 94.4171 90.9433 93.979C91.2869 93.5343 91.707 93.1686 92.2035 92.8819C92.7001 92.5952 93.2244 92.4234 93.7765 92.3663C94.3335 92.2911 94.8703 92.3276 95.387 92.4758C95.9085 92.6058 96.3916 92.8426 96.8364 93.1862C97.286 93.5117 97.6575 93.9285 97.9508 94.4365C98.2442 94.9446 98.4194 95.4747 98.4764 96.0268C98.5383 96.5607 98.4985 97.0918 98.357 97.62L95.7289 107.428L85.9208 104.8Z" fill="white"/>
</svg>
