<svg width="160" height="160" viewBox="0 0 160 160" fill="none" xmlns="http://www.w3.org/2000/svg">
<path d="M80 0L86.2731 16.3082L95.6072 1.53718L98.5782 18.7558L110.615 6.08964L110.169 23.557L124.446 13.4824L120.601 30.5273L136.569 23.4315L129.473 39.3988L146.518 35.5544L136.443 49.8306L153.91 49.3853L141.244 61.4218L158.463 64.3928L143.692 73.7269L160 80L143.692 86.2731L158.463 95.6072L141.244 98.5782L153.91 110.615L136.443 110.169L146.518 124.446L129.473 120.601L136.569 136.569L120.601 129.473L124.446 146.518L110.169 136.443L110.615 153.91L98.5782 141.244L95.6072 158.463L86.2731 143.692L80 160L73.7269 143.692L64.3928 158.463L61.4218 141.244L49.3853 153.91L49.8306 136.443L35.5544 146.518L39.3988 129.473L23.4315 136.569L30.5273 120.601L13.4824 124.446L23.557 110.169L6.08964 110.615L18.7558 98.5782L1.53718 95.6072L16.3082 86.2731L0 80L16.3082 73.7269L1.53718 64.3928L18.7558 61.4218L6.08964 49.3853L23.557 49.8306L13.4824 35.5544L30.5273 39.3988L23.4315 23.4315L39.3988 30.5273L35.5544 13.4824L49.8306 23.557L49.3853 6.08964L61.4218 18.7558L64.3928 1.53718L73.7269 16.3082L80 0Z" fill="#FBC70A"/>
</svg>
