<svg width="160" height="160" viewBox="0 0 160 160" fill="none" xmlns="http://www.w3.org/2000/svg">
<path d="M80 0L86.2731 16.3082L95.6072 1.53718L98.5782 18.7558L110.615 6.08964L110.169 23.557L124.446 13.4824L120.601 30.5273L136.569 23.4315L129.473 39.3988L146.518 35.5544L136.443 49.8306L153.91 49.3853L141.244 61.4218L158.463 64.3928L143.692 73.7269L160 80L143.692 86.2731L158.463 95.6072L141.244 98.5782L153.91 110.615L136.443 110.169L146.518 124.446L129.473 120.601L136.569 136.569L120.601 129.473L124.446 146.518L110.169 136.443L110.615 153.91L98.5782 141.244L95.6072 158.463L86.2731 143.692L80 160L73.7269 143.692L64.3928 158.463L61.4218 141.244L49.3853 153.91L49.8306 136.443L35.5544 146.518L39.3988 129.473L23.4315 136.569L30.5273 120.601L13.4824 124.446L23.557 110.169L6.08964 110.615L18.7558 98.5782L1.53718 95.6072L16.3082 86.2731L0 80L16.3082 73.7269L1.53718 64.3928L18.7558 61.4218L6.08964 49.3853L23.557 49.8306L13.4824 35.5544L30.5273 39.3988L23.4315 23.4315L39.3988 30.5273L35.5544 13.4824L49.8306 23.557L49.3853 6.08964L61.4218 18.7558L64.3928 1.53718L73.7269 16.3082L80 0Z" fill="#FBC70A"/>
<path d="M36.7327 62.4271L31.7444 65.3071L37.0904 74.5666L35.2197 75.6466L28.9197 64.7347L37.6493 59.6947L43.9493 70.6066L42.0787 71.6866L36.7327 62.4271ZM50.2219 67.1722C49.2451 67.7362 48.3094 67.8676 47.415 67.5665L49.665 71.4636L47.8568 72.5076L41.5568 61.5956L42.9753 60.7766L43.7588 61.7377C43.795 61.1764 43.9639 60.677 44.2656 60.2395C44.5777 59.7961 45.0092 59.4153 45.5599 59.0973C46.0068 58.8393 46.4653 58.6855 46.9354 58.6358C47.4099 58.5696 47.8753 58.6197 48.3315 58.7858C48.7817 58.9416 49.2227 59.2135 49.6546 59.6016C50.0805 59.9792 50.4735 60.4798 50.8335 61.1033L51.1215 61.6022C51.4815 62.2257 51.7185 62.8163 51.8326 63.374C51.9467 63.9316 51.9565 64.4525 51.8619 64.9367C51.7777 65.4148 51.5966 65.8451 51.3184 66.2273C51.0343 66.5992 50.6688 66.9142 50.2219 67.1722ZM48.7044 65.8036C49.2551 65.4856 49.5852 65.0733 49.6946 64.5668C49.804 64.0602 49.6457 63.438 49.2197 62.7002L48.9317 62.2013C48.5177 61.4843 48.0558 61.0443 47.546 60.8813C47.0362 60.7184 46.5164 60.7899 45.9863 61.0959C45.4875 61.3839 45.176 61.7924 45.0519 62.3213C44.9381 62.8443 45.0598 63.4391 45.417 64.1058L45.759 64.6982C46.155 65.3841 46.6191 65.8159 47.1513 65.9936C47.6878 66.1549 48.2055 66.0916 48.7044 65.8036ZM58.1342 62.604C56.9599 63.282 55.8481 63.4805 54.799 63.1994C53.7603 62.9123 52.896 62.1712 52.206 60.976L51.918 60.4772C51.576 59.8848 51.3531 59.3068 51.2494 58.7432C51.156 58.1735 51.1775 57.6346 51.3136 57.1265C51.4542 56.6019 51.7051 56.1245 52.0663 55.6942C52.4216 55.2535 52.8902 54.8652 53.4722 54.5292C54.6465 53.8512 55.753 53.6558 56.7918 53.9429C57.8409 54.224 58.7104 54.9621 59.4004 56.1572L59.6884 56.656C60.0304 57.2484 60.2481 57.8294 60.3414 58.3991C60.4451 58.9627 60.4267 59.5068 60.2862 60.0314C60.15 60.5395 59.8991 61.017 59.5334 61.4636C59.1722 61.8939 58.7058 62.274 58.1342 62.604ZM57.1622 60.9205C57.7545 60.5785 58.1076 60.146 58.2214 59.6231C58.3455 59.0941 58.2006 58.4711 57.7866 57.754L57.4986 57.2552C57.0906 56.5485 56.6213 56.1197 56.0908 55.9688C55.5646 55.8014 55.0158 55.8828 54.4442 56.2128C53.8518 56.5548 53.4936 56.9902 53.3694 57.5192C53.2556 58.0421 53.4057 58.6621 53.8197 59.3792L54.1077 59.878C54.5157 60.5847 54.9828 61.0217 55.509 61.1891C56.0395 61.34 56.5906 61.2505 57.1622 60.9205ZM58.8502 51.6113L61.89 49.8563C62.4719 49.5203 62.9956 49.2872 63.4609 49.1572C63.9262 49.0271 64.3405 48.9888 64.7039 49.0422C65.0717 49.0793 65.3908 49.1999 65.6611 49.4041C65.9314 49.6083 66.1626 49.8767 66.3546 50.2092C66.5346 50.521 66.6247 50.857 66.6248 51.2172C66.6249 51.5774 66.5127 51.947 66.2881 52.3261C66.837 52.2448 67.3001 52.303 67.6776 52.5007C68.0654 52.6925 68.3674 52.9755 68.5834 53.3496C68.7874 53.7029 68.9132 54.0529 68.9609 54.3995C69.0086 54.7461 68.9595 55.0931 68.8137 55.4405C68.6783 55.782 68.4379 56.1217 68.0926 56.4596C67.7473 56.7975 67.2837 57.1345 66.7017 57.4705L63.3502 59.4055L58.8502 51.6113ZM63.2061 55.1239L64.2681 56.9634L65.8737 56.0364C66.3518 55.7604 66.6393 55.4904 66.7364 55.2265C66.8378 54.9463 66.8046 54.6606 66.6366 54.3696C66.4686 54.0787 66.2408 53.9122 65.9534 53.8703C65.6703 53.8121 65.2898 53.9209 64.8117 54.1969L63.2061 55.1239ZM61.4241 52.0374L62.3961 53.721L63.69 52.974C64.1888 52.686 64.4845 52.4182 64.5772 52.1707C64.6803 51.9172 64.6538 51.6554 64.4978 51.3852C64.3418 51.115 64.1283 50.9611 63.8572 50.9236C63.5965 50.8802 63.2168 51.0024 62.718 51.2904L61.4241 52.0374ZM74.7255 53.025C74.1644 53.349 73.6123 53.5569 73.0695 53.6486C72.5206 53.7299 71.9921 53.7025 71.4839 53.5664C70.9698 53.4198 70.4893 53.1637 70.0427 52.798C69.6064 52.4264 69.2173 51.9444 68.8753 51.352L68.5873 50.8532C68.2453 50.2608 68.0224 49.6828 67.9187 49.1192C67.8253 48.5495 67.8468 48.0106 67.9829 47.5024C68.1131 46.9839 68.3536 46.5125 68.7045 46.0882C69.0493 45.6535 69.5024 45.2742 70.0635 44.9502C71.1963 44.2962 72.291 44.1283 73.3478 44.4466C74.4045 44.7649 75.3078 45.5736 76.0578 46.8726L76.4088 47.4806L70.8905 50.6666C71.3205 51.2913 71.7753 51.6591 72.2551 51.7701C72.7289 51.8707 73.2464 51.759 73.8075 51.435C74.3583 51.117 74.7044 50.7925 74.8458 50.4614C74.9917 50.1139 75.0311 49.7863 74.9643 49.4785L76.8349 48.3985C76.9617 48.8102 77.0268 49.223 77.0302 49.6368C77.0335 50.0505 76.9557 50.4557 76.7967 50.8524C76.6377 51.249 76.3894 51.6349 76.0517 52.01C75.708 52.3747 75.2659 52.713 74.7255 53.025ZM70.9815 46.5402C70.4515 46.8462 70.1108 47.2161 69.9595 47.6499C69.8081 48.0837 69.8528 48.6052 70.0937 49.2144L73.7414 47.1084C73.3326 46.5684 72.9004 46.2638 72.4446 46.1943C71.9992 46.1189 71.5115 46.2342 70.9815 46.5402ZM84.0325 47.6517C83.0556 48.2157 82.1199 48.3471 81.2255 48.0459L83.4755 51.9431L81.6673 52.9871L75.3673 42.0751L76.7858 41.2561L77.5693 42.2172C77.6055 41.6559 77.7744 41.1565 78.0761 40.719C78.3882 40.2756 78.8197 39.8948 79.3705 39.5768C79.8173 39.3188 80.2758 39.165 80.7459 39.1153C81.2205 39.0491 81.6858 39.0992 82.142 39.2653C82.5922 39.4211 83.0333 39.693 83.4651 40.081C83.891 40.4587 84.284 40.9593 84.644 41.5828L84.932 42.0817C85.292 42.7052 85.529 43.2958 85.6431 43.8535C85.7573 44.4111 85.767 44.932 85.6724 45.4162C85.5882 45.8943 85.4071 46.3246 85.1289 46.7068C84.8448 47.0787 84.4793 47.3937 84.0325 47.6517ZM82.5149 46.2831C83.0657 45.9651 83.3957 45.5528 83.5051 45.0463C83.6145 44.5397 83.4562 43.9175 83.0302 43.1797L82.7422 42.6808C82.3282 41.9638 81.8663 41.5238 81.3565 41.3608C80.8468 41.1979 80.3269 41.2694 79.7969 41.5754C79.298 41.8634 78.9865 42.2719 78.8624 42.8008C78.7486 43.3238 78.8703 43.9186 79.2275 44.5853L79.5695 45.1777C79.9655 45.8636 80.4296 46.2954 80.9618 46.4731C81.4983 46.6344 82.016 46.5711 82.5149 46.2831ZM84.0901 37.039L85.8984 35.995L87.2484 38.3333L88.5578 37.5773C89.7529 36.8873 90.7617 36.6305 91.5841 36.8069C92.4169 36.9774 93.0763 37.4835 93.5623 38.3253C94.0483 39.167 94.1569 39.9911 93.8881 40.7976C93.6297 41.598 92.9029 42.3432 91.7078 43.0332L88.5901 44.8332L84.0901 37.039ZM88.1034 39.8142L89.5434 42.3083L90.9308 41.5073C91.4296 41.2193 91.7303 40.9002 91.8329 40.55C91.946 40.1937 91.8885 39.8182 91.6605 39.4233C91.4325 39.0283 91.136 38.7908 90.7709 38.7105C90.4163 38.6243 89.9896 38.7252 89.4908 39.0132L88.1034 39.8142ZM35.1867 101.256C34.0123 101.934 32.9006 102.133 31.8515 101.852C30.8128 101.564 29.9484 100.823 29.2584 99.6282L28.9704 99.1294C28.6284 98.537 28.4056 97.959 28.3019 97.3954C28.2085 96.8257 28.2299 96.2868 28.3661 95.7786C28.5067 95.2541 28.7576 94.7767 29.1188 94.3464C29.4741 93.9057 29.9427 93.5174 30.5247 93.1814C31.699 92.5034 32.8055 92.3079 33.8442 92.595C34.8933 92.8762 35.7629 93.6143 36.4529 94.8094L36.7409 95.3082C37.0829 95.9006 37.3006 96.4816 37.3939 97.0512C37.4976 97.6149 37.4792 98.159 37.3386 98.6835C37.2025 99.1917 36.9516 99.6691 36.5859 100.116C36.2247 100.546 35.7582 100.926 35.1867 101.256ZM34.2147 99.5727C34.807 99.2307 35.1601 98.7982 35.2739 98.2752C35.398 97.7463 35.2531 97.1233 34.8391 96.4062L34.5511 95.9074C34.1431 95.2007 33.6738 94.7719 33.1433 94.6209C32.6171 94.4536 32.0682 94.5349 31.4967 94.8649C30.9043 95.2069 30.546 95.6424 30.4219 96.1714C30.3081 96.6943 30.4582 97.3143 30.8722 98.0314L31.1602 98.5302C31.5682 99.2369 32.0353 99.6739 32.5615 99.8412C33.092 99.9922 33.6431 99.9027 34.2147 99.5727ZM34.8188 90.8892L41.366 87.1092L42.284 88.6992L39.9145 90.0672L43.4965 96.2714L41.6883 97.3154L38.1063 91.1112L35.7368 92.4792L34.8188 90.8892ZM44.9586 84.8479C45.9978 84.2479 46.8877 84.0252 47.6281 84.1797C48.3729 84.3177 48.9404 84.7245 49.3304 85.4C49.5224 85.7326 49.6162 86.0872 49.6119 86.4638C49.6181 86.8343 49.5088 87.2092 49.2843 87.5882C49.7916 87.5309 50.231 87.5959 50.6024 87.7833C50.9843 87.9647 51.2862 88.2476 51.5082 88.6321C51.7122 88.9855 51.8388 89.3488 51.8881 89.7222C51.9314 90.0852 51.878 90.4486 51.7278 90.8125C51.5879 91.1703 51.3462 91.5316 51.0025 91.8963C50.6528 92.2506 50.1922 92.5928 49.6206 92.9228C48.4774 93.5828 47.5007 93.8349 46.6903 93.6793C45.8843 93.5072 45.1959 93.0109 44.6251 92.1904L46.371 91.1824C46.6762 91.5189 47.0083 91.7221 47.3673 91.7919C47.7203 91.8514 48.1774 91.7191 48.7386 91.3951C49.3102 91.0651 49.6541 90.7488 49.7703 90.4461C49.897 90.1374 49.8823 89.848 49.7263 89.5778C49.5703 89.3076 49.327 89.1502 48.9963 89.1055C48.6761 89.0548 48.2302 89.1945 47.6586 89.5245L46.8012 90.0195L45.9732 88.5853L46.8306 88.0903C47.3086 87.8143 47.5962 87.5444 47.6933 87.2805C47.8007 87.0106 47.7794 86.7458 47.6294 86.486C47.4794 86.2262 47.2607 86.0753 46.9733 86.0334C46.6962 85.9856 46.3186 86.0996 45.8406 86.3756C45.3729 86.6456 45.0892 86.9341 44.9894 87.2412C44.8895 87.5483 44.903 87.9077 45.0299 88.3194L43.284 89.3274C42.8811 88.4376 42.7971 87.6201 43.0319 86.8748C43.2668 86.1296 43.909 85.4539 44.9586 84.8479ZM49.8775 82.1951L51.6858 81.1511L53.0358 83.4893L54.1893 82.8233C55.3844 82.1333 56.3932 81.8766 57.2156 82.053C58.0484 82.2234 58.7078 82.7295 59.1938 83.5713C59.6798 84.4131 59.7884 85.2372 59.5196 86.0436C59.2612 86.8441 58.5344 87.5893 57.3393 88.2793L54.3775 89.9893L49.8775 82.1951ZM57.1105 78.0191L58.9188 76.9751L63.4188 84.7693L61.6105 85.8133L57.1105 78.0191ZM53.8908 84.9702L55.3308 87.4644L56.5623 86.7534C57.0611 86.4654 57.3618 86.1463 57.4644 85.796C57.5775 85.4398 57.52 85.0642 57.292 84.6693C57.064 84.2744 56.7675 84.0368 56.4024 83.9566C56.0478 83.8704 55.6211 83.9712 55.1223 84.2592L53.8908 84.9702ZM60.9447 75.8054L63.9844 74.0504C64.5664 73.7144 65.0901 73.4814 65.5554 73.3513C66.0207 73.2212 66.435 73.1829 66.7984 73.2364C67.1662 73.2734 67.4853 73.3941 67.7556 73.5983C68.0259 73.8025 68.2571 74.0708 68.4491 74.4034C68.6291 74.7152 68.7191 75.0512 68.7193 75.4114C68.7194 75.7716 68.6072 76.1412 68.3826 76.5202C68.9315 76.4389 69.3946 76.4971 69.7721 76.6949C70.1599 76.8867 70.4619 77.1696 70.6779 77.5437C70.8819 77.8971 71.0077 78.247 71.0554 78.5936C71.1031 78.9402 71.054 79.2873 70.9082 79.6347C70.7728 79.9762 70.5324 80.3159 70.1871 80.6538C69.8418 80.9917 69.3782 81.3287 68.7962 81.6647L65.4447 83.5997L60.9447 75.8054ZM65.3006 79.3181L66.3626 81.1575L67.9682 80.2305C68.4463 79.9545 68.7338 79.6846 68.8309 79.4207C68.9323 79.1404 68.8991 78.8548 68.7311 78.5638C68.5631 78.2728 68.3353 78.1064 68.0479 78.0645C67.7648 78.0062 67.3843 78.1151 66.9062 78.3911L65.3006 79.3181ZM63.5186 76.2316L64.4906 77.9151L65.7844 77.1681C66.2833 76.8801 66.579 76.6124 66.6717 76.3649C66.7748 76.1114 66.7483 75.8495 66.5923 75.5793C66.4363 75.3091 66.2228 75.1553 65.9517 75.1178C65.691 75.0743 65.3113 75.1966 64.8124 75.4846L63.5186 76.2316ZM72.3597 77.0092L74.2927 75.8932L75.4738 80.927L74.1176 81.71L72.3597 77.0092ZM84.5559 68.3257L81.1576 70.2877L82.9936 73.4678L81.1854 74.5118L76.6854 66.7175L78.4936 65.6735L80.2396 68.6977L83.6379 66.7357L81.8919 63.7115L83.7002 62.6675L88.2002 70.4618L86.3919 71.5058L84.5559 68.3257ZM92.3354 68.2614C91.4936 68.7474 90.7345 68.9085 90.058 68.7448C89.3816 68.5811 88.8303 68.1304 88.4043 67.3925C88.1703 66.9872 88.0227 66.5875 87.9614 66.1933C87.9045 65.7828 87.9533 65.3874 88.1079 65.0071C88.2669 64.6105 88.5368 64.226 88.9177 63.8537C89.303 63.465 89.8229 63.0816 90.4777 62.7036L91.7871 61.9476L91.5171 61.48C91.3011 61.1059 91.0352 60.8853 90.7193 60.8182C90.4079 60.7348 90.0183 60.828 89.5507 61.098C89.1142 61.35 88.8452 61.6162 88.7438 61.8964C88.6423 62.1767 88.6488 62.464 88.7632 62.7582L86.7991 63.8922C86.4387 63.1719 86.3892 62.4383 86.6509 61.6914C86.9169 60.9282 87.5955 60.2315 88.6867 59.6015C89.7259 59.0015 90.6433 58.7906 91.4389 58.9686C92.2345 59.1467 92.8634 59.6358 93.3254 60.436L96.3854 65.7361L94.9668 66.5551L94.1587 65.5875C94.1165 66.1384 93.9372 66.6437 93.6207 67.1036C93.3146 67.5574 92.8862 67.9434 92.3354 68.2614ZM91.7832 66.5849C92.0742 66.4169 92.3122 66.2171 92.4972 65.9856C92.6866 65.7376 92.8216 65.4795 92.9023 65.2113C92.977 64.9326 93.0033 64.6541 92.9812 64.3759C92.9591 64.0977 92.8761 63.8338 92.7321 63.5844L92.5971 63.3506L91.2877 64.1066C90.6641 64.4666 90.2876 64.8225 90.1582 65.1744C90.0288 65.5262 90.0661 65.8788 90.2701 66.2321C90.4321 66.5127 90.6442 66.6882 90.9065 66.7585C91.1792 66.8227 91.4714 66.7649 91.7832 66.5849ZM102.712 57.7393L101.948 58.1803L103.829 61.4383L102.021 62.4823L100.14 59.2243L99.3606 59.6743L99.4801 63.9493L97.3913 65.1553L97.3698 59.826L93.1563 57.2081L95.2452 56.0021L98.4271 58.0933L99.2221 57.6343L97.5211 54.6881L99.3293 53.6441L101.03 56.5903L101.81 56.1403L101.621 52.3211L103.679 51.1331L103.805 55.9238L108.459 58.7653L106.277 60.0253L102.712 57.7393ZM111.501 57.1959C110.66 57.6819 109.9 57.8431 109.224 57.6794C108.547 57.5157 107.996 57.0649 107.57 56.3271C107.336 55.9218 107.189 55.522 107.127 55.1279C107.07 54.7173 107.119 54.3219 107.274 53.9417C107.433 53.5451 107.703 53.1606 108.084 52.7883C108.469 52.3996 108.989 52.0162 109.644 51.6382L110.953 50.8822L110.683 50.4146C110.467 50.0404 110.201 49.8198 109.885 49.7528C109.574 49.6693 109.184 49.7626 108.717 50.0326C108.28 50.2846 108.011 50.5507 107.91 50.831C107.808 51.1113 107.815 51.3985 107.929 51.6927L105.965 52.8267C105.605 52.1064 105.555 51.3729 105.817 50.626C106.083 49.8627 106.761 49.1661 107.853 48.5361C108.892 47.9361 109.809 47.7251 110.605 47.9032C111.4 48.0812 112.029 48.5704 112.491 49.3706L115.551 54.6706L114.133 55.4896L113.325 54.522C113.282 55.0729 113.103 55.5783 112.787 56.0382C112.481 56.492 112.052 56.8779 111.501 57.1959ZM110.949 55.5194C111.24 55.3514 111.478 55.1517 111.663 54.9201C111.852 54.6722 111.988 54.4141 112.068 54.1458C112.143 53.8672 112.169 53.5887 112.147 53.3105C112.125 53.0322 112.042 52.7684 111.898 52.519L111.763 52.2852L110.454 53.0412C109.83 53.4012 109.454 53.7571 109.324 54.1089C109.195 54.4608 109.232 54.8134 109.436 55.1667C109.598 55.4473 109.81 55.6227 110.072 55.693C110.345 55.7573 110.637 55.6994 110.949 55.5194ZM112.992 45.7556L116.032 44.0006C116.614 43.6646 117.138 43.4316 117.603 43.3015C118.068 43.1714 118.483 43.1331 118.846 43.1866C119.214 43.2236 119.533 43.3443 119.803 43.5485C120.074 43.7527 120.305 44.021 120.497 44.3536C120.677 44.6654 120.767 45.0014 120.767 45.3616C120.767 45.7218 120.655 46.0914 120.43 46.4704C120.979 46.3891 121.442 46.4473 121.82 46.6451C122.208 46.8369 122.51 47.1198 122.726 47.4939C122.93 47.8473 123.055 48.1972 123.103 48.5438C123.151 48.8904 123.102 49.2374 122.956 49.5849C122.821 49.9264 122.58 50.266 122.235 50.604C121.89 50.9419 121.426 51.2789 120.844 51.6149L117.492 53.5499L112.992 45.7556ZM117.348 49.2683L118.41 51.1077L120.016 50.1807C120.494 49.9047 120.782 49.6348 120.879 49.3709C120.98 49.0906 120.947 48.805 120.779 48.514C120.611 48.223 120.383 48.0566 120.096 48.0147C119.813 47.9564 119.432 48.0653 118.954 48.3413L117.348 49.2683ZM115.566 46.1818L116.538 47.8653L117.832 47.1183C118.331 46.8303 118.627 46.5626 118.719 46.3151C118.823 46.0616 118.796 45.7997 118.64 45.5295C118.484 45.2593 118.271 45.1055 117.999 45.068C117.739 45.0245 117.359 45.1468 116.86 45.4348L115.566 46.1818ZM57.3155 109.456L53.9172 111.418L55.7532 114.598L53.945 115.642L49.445 107.848L51.2532 106.804L52.9992 109.828L56.3975 107.866L54.6515 104.842L56.4598 103.798L60.9598 111.592L59.1515 112.636L57.3155 109.456ZM65.095 109.392C64.2532 109.878 63.4941 110.039 62.8176 109.876C62.1411 109.712 61.5899 109.261 61.1639 108.523C60.9299 108.118 60.7822 107.718 60.7209 107.324C60.664 106.913 60.7129 106.518 60.8675 106.138C61.0265 105.741 61.2964 105.357 61.6773 104.984C62.0625 104.596 62.5825 104.212 63.2372 103.834L64.5467 103.078L64.2767 102.611C64.0607 102.237 63.7947 102.016 63.4789 101.949C63.1674 101.865 62.7779 101.959 62.3102 102.229C61.8737 102.481 61.6048 102.747 61.5033 103.027C61.4019 103.307 61.4084 103.595 61.5228 103.889L59.5586 105.023C59.1982 104.303 59.1488 103.569 59.4104 102.822C59.6764 102.059 60.355 101.362 61.4462 100.732C62.4855 100.132 63.4029 99.9212 64.1985 100.099C64.9941 100.277 65.6229 100.766 66.0849 101.567L69.1449 106.867L67.7264 107.686L66.9183 106.718C66.8761 107.269 66.6968 107.774 66.3803 108.234C66.0742 108.688 65.6458 109.074 65.095 109.392ZM64.5427 107.716C64.8337 107.548 65.0717 107.348 65.2568 107.116C65.4462 106.868 65.5812 106.61 65.6619 106.342C65.7366 106.063 65.7628 105.785 65.7408 105.507C65.7187 105.228 65.6357 104.965 65.4917 104.715L65.3567 104.481L64.0472 105.237C63.4237 105.597 63.0472 105.953 62.9178 106.305C62.7884 106.657 62.8257 107.009 63.0297 107.363C63.1917 107.643 63.4038 107.819 63.6661 107.889C63.9388 107.953 64.231 107.896 64.5427 107.716ZM77.0128 94.9872L77.1483 96.842L77.2592 102.182L74.9833 103.496L70.4833 95.7017L72.2915 94.6577L75.4685 100.16L75.333 98.3057L75.2222 92.9657L77.4981 91.6517L81.9981 99.446L80.1898 100.49L77.0128 94.9872ZM84.7325 93.5233L83.9531 93.9733L85.8341 97.2313L84.0258 98.2753L79.5258 90.481L81.3341 89.437L83.0351 92.3833L83.8145 91.9333L83.9841 87.907L86.073 86.701L85.734 91.8019L90.8847 94.3153L88.7023 95.5753L84.7325 93.5233ZM95.0224 92.1135C93.848 92.7915 92.7363 92.9899 91.6872 92.7088C90.6485 92.4217 89.7841 91.6806 89.0941 90.4855L88.8061 89.9866C88.4641 89.3943 88.2413 88.8163 88.1376 88.2526C88.0442 87.6829 88.0656 87.144 88.2018 86.6359C88.3424 86.1113 88.5933 85.6339 88.9545 85.2036C89.3098 84.763 89.7784 84.3746 90.3604 84.0386C91.5347 83.3606 92.6412 83.1652 93.6799 83.4523C94.7291 83.7334 95.5986 84.4715 96.2886 85.6666L96.5766 86.1655C96.9186 86.7578 97.1363 87.3388 97.2296 87.9085C97.3333 88.4721 97.3149 89.0162 97.1744 89.5408C97.0382 90.049 96.7873 90.5264 96.4216 90.973C96.0604 91.4033 95.594 91.7835 95.0224 92.1135ZM94.0504 90.4299C94.6427 90.0879 94.9958 89.6554 95.1096 89.1325C95.2337 88.6035 95.0888 87.9805 94.6748 87.2635L94.3868 86.7646C93.9788 86.0579 93.5095 85.6291 92.979 85.4782C92.4528 85.3109 91.904 85.3922 91.3324 85.7222C90.74 86.0642 90.3818 86.4997 90.2576 87.0286C90.1438 87.5515 90.2939 88.1716 90.7079 88.8886L90.9959 89.3875C91.4039 90.0941 91.871 90.5311 92.3972 90.6985C92.9277 90.8494 93.4788 90.7599 94.0504 90.4299ZM103.609 82.7289L100.211 84.6909L102.047 87.8709L100.238 88.9149L95.7384 81.1207L97.5467 80.0767L99.2927 83.1008L102.691 81.1388L100.945 78.1147L102.753 77.0707L107.253 84.8649L105.445 85.9089L103.609 82.7289ZM109.988 78.9422L109.208 79.3922L111.089 82.6502L109.281 83.6942L104.781 75.9L106.589 74.856L108.29 77.8022L109.07 77.3522L109.239 73.326L111.328 72.12L110.989 77.2209L116.14 79.7342L113.957 80.9942L109.988 78.9422ZM119.578 77.7494L111.944 71.7642L113.908 70.6302L119.25 74.9869L118.024 68.2542L119.894 67.1742L122.063 80.4711L120.193 81.5511L119.578 77.7494ZM73.3898 130.006C72.8286 130.33 72.2714 130.541 71.7182 130.639C71.1693 130.72 70.6408 130.693 70.1326 130.557C69.6288 130.404 69.1536 130.145 68.707 129.779C68.2707 129.408 67.8815 128.926 67.5395 128.333L67.2515 127.835C66.9155 127.253 66.6957 126.68 66.592 126.116C66.4986 125.547 66.52 125.008 66.6562 124.499C66.7864 123.981 67.0239 123.504 67.3688 123.07C67.724 122.629 68.177 122.25 68.7278 121.932C69.7151 121.362 70.6199 121.165 71.4423 121.341C72.2751 121.512 72.9945 121.942 73.6003 122.631L71.6674 123.747C71.4222 123.514 71.1188 123.385 70.757 123.358C70.3952 123.331 70.0168 123.432 69.6219 123.66C69.3933 123.792 69.199 123.96 69.0392 124.163C68.8837 124.35 68.7791 124.576 68.7252 124.843C68.6653 125.099 68.6666 125.389 68.729 125.714C68.7959 126.022 68.9373 126.362 69.1533 126.737L69.4413 127.235C69.6513 127.599 69.8811 127.889 70.1306 128.105C70.3742 128.311 70.6249 128.457 70.8828 128.544C71.1346 128.62 71.3833 128.643 71.6288 128.612C71.8846 128.575 72.1217 128.494 72.3399 128.368C72.7868 128.11 73.0675 127.816 73.1821 127.487C73.3072 127.151 73.3272 126.814 73.2424 126.475L75.1753 125.359C75.4935 126.27 75.5211 127.134 75.2583 127.951C74.9999 128.751 74.3771 129.436 73.3898 130.006ZM81.3381 125.417C80.1638 126.095 79.0521 126.294 78.003 126.013C76.9642 125.726 76.0999 124.985 75.4099 123.789L75.1219 123.291C74.7799 122.698 74.557 122.12 74.4533 121.557C74.36 120.987 74.3814 120.448 74.5175 119.94C74.6581 119.415 74.909 118.938 75.2703 118.508C75.6255 118.067 76.0941 117.679 76.6761 117.343C77.8504 116.665 78.957 116.469 79.9957 116.756C81.0448 117.037 81.9143 117.776 82.6043 118.971L82.8923 119.469C83.2343 120.062 83.452 120.643 83.5453 121.213C83.6491 121.776 83.6307 122.32 83.4901 122.845C83.3539 123.353 83.103 123.83 82.7374 124.277C82.3761 124.707 81.9097 125.087 81.3381 125.417ZM80.3661 123.734C80.9585 123.392 81.3115 122.959 81.4253 122.437C81.5495 121.908 81.4046 121.285 80.9906 120.567L80.7026 120.069C80.2946 119.362 79.8253 118.933 79.2947 118.782C78.7686 118.615 78.2197 118.696 77.6481 119.026C77.0558 119.368 76.6975 119.804 76.5733 120.333C76.4596 120.856 76.6097 121.476 77.0237 122.193L77.3117 122.691C77.7197 123.398 78.1868 123.835 78.7129 124.003C79.2435 124.153 79.7945 124.064 80.3661 123.734ZM82.0541 114.425L83.8624 113.381L87.4444 119.585L90.453 117.848L86.871 111.644L88.6792 110.6L92.2612 116.804L93.2745 116.219L95.3625 119.835L93.6166 120.843L92.4466 118.817L86.5541 122.219L82.0541 114.425ZM102.542 113.175C101.981 113.499 101.424 113.71 100.87 113.808C100.322 113.889 99.793 113.862 99.2849 113.726C98.7811 113.573 98.3059 113.314 97.8592 112.948C97.4229 112.577 97.0338 112.095 96.6918 111.502L96.4038 111.004C96.0678 110.422 95.8479 109.849 95.7442 109.285C95.6509 108.715 95.6723 108.177 95.8084 107.668C95.9386 107.15 96.1761 106.673 96.521 106.239C96.8763 105.798 97.3293 105.419 97.8801 105.101C98.8673 104.531 99.7722 104.334 100.595 104.51C101.427 104.681 102.147 105.111 102.753 105.8L100.82 106.916C100.574 106.683 100.271 106.554 99.9092 106.527C99.5474 106.5 99.169 106.601 98.7741 106.829C98.5455 106.961 98.3513 107.129 98.1914 107.332C98.036 107.519 97.9313 107.745 97.8774 108.012C97.8175 108.268 97.8188 108.558 97.8813 108.883C97.9481 109.19 98.0896 109.531 98.3056 109.906L98.5936 110.404C98.8036 110.768 99.0333 111.058 99.2829 111.274C99.5264 111.48 99.7771 111.626 100.035 111.713C100.287 111.789 100.536 111.812 100.781 111.781C101.037 111.744 101.274 111.663 101.492 111.537C101.939 111.279 102.22 110.985 102.334 110.656C102.459 110.32 102.479 109.983 102.395 109.644L104.328 108.528C104.646 109.439 104.673 110.303 104.411 111.12C104.152 111.92 103.529 112.605 102.542 113.175ZM110.412 108.631C109.851 108.955 109.299 109.163 108.756 109.255C108.207 109.336 107.679 109.309 107.171 109.173C106.657 109.026 106.176 108.77 105.73 108.404C105.293 108.033 104.904 107.551 104.562 106.958L104.274 106.46C103.932 105.867 103.709 105.289 103.606 104.726C103.512 104.156 103.534 103.617 103.67 103.109C103.8 102.59 104.04 102.119 104.391 101.695C104.736 101.26 105.189 100.881 105.75 100.557C106.883 99.9026 107.978 99.7347 109.035 100.053C110.091 100.371 110.995 101.18 111.745 102.479L112.096 103.087L106.577 106.273C107.007 106.898 107.462 107.266 107.942 107.377C108.416 107.477 108.933 107.365 109.494 107.041C110.045 106.723 110.391 106.399 110.533 106.068C110.679 105.72 110.718 105.393 110.651 105.085L112.522 104.005C112.649 104.417 112.714 104.829 112.717 105.243C112.72 105.657 112.643 106.062 112.484 106.459C112.325 106.855 112.076 107.241 111.739 107.616C111.395 107.981 110.953 108.319 110.412 108.631ZM106.668 102.147C106.138 102.453 105.798 102.823 105.646 103.256C105.495 103.69 105.54 104.212 105.781 104.821L109.428 102.715C109.02 102.175 108.587 101.87 108.131 101.801C107.686 101.725 107.198 101.841 106.668 102.147ZM109.97 98.3073L116.517 94.5273L117.435 96.1173L115.066 97.4853L118.648 103.69L116.84 104.734L113.258 98.5293L110.888 99.8973L109.97 98.3073ZM124.297 93.0911L124.433 94.9458L124.543 100.286L122.268 101.6L117.768 93.8056L119.576 92.7616L122.753 98.2643L122.617 96.4096L122.506 91.0696L124.782 89.7556L129.282 97.5498L127.474 98.5938L124.297 93.0911Z" fill="white"/>
</svg>
