<svg width="326" height="596" viewBox="0 0 326 596" fill="none" xmlns="http://www.w3.org/2000/svg">
<path d="M0 0H326V596L315.812 586L305.625 596L295.438 586L285.25 596L275.062 586L264.875 596L254.688 586L244.5 596L234.312 586L224.125 596L213.938 586L203.75 596L193.562 586L183.375 596L173.188 586L163 596L152.812 586L142.625 596L132.438 586L122.25 596L112.062 586L101.875 596L91.6875 586L81.5 596L71.3125 586L61.125 596L50.9375 586L40.75 596L30.5625 586L20.375 596L10.1875 586L0 596V0Z" fill="white"/>
</svg>
