<svg width="16" height="18" viewBox="0 0 16 18" fill="none" xmlns="http://www.w3.org/2000/svg">
<path d="M14.1554 7.15385C14.1554 12.6923 8.0015 17 8.0015 17C8.0015 17 1.84766 12.6923 1.84766 7.15385C1.84766 5.52174 2.49601 3.95649 3.65008 2.80242C4.80415 1.64835 6.3694 1 8.0015 1C9.6336 1 11.1989 1.64835 12.3529 2.80242C13.507 3.95649 14.1554 5.52174 14.1554 7.15385V7.15385Z" stroke="#326EEA" stroke-width="1.75" stroke-linecap="round" stroke-linejoin="round"/>
<path d="M8.0006 9.61534C9.36007 9.61534 10.4621 8.51327 10.4621 7.1538C10.4621 5.79433 9.36007 4.69226 8.0006 4.69226C6.64113 4.69226 5.53906 5.79433 5.53906 7.1538C5.53906 8.51327 6.64113 9.61534 8.0006 9.61534Z" stroke="#326EEA" stroke-width="1.75" stroke-linecap="round" stroke-linejoin="round"/>
</svg>
