<svg width="196" height="36" viewBox="0 0 196 36" fill="none" xmlns="http://www.w3.org/2000/svg">
<path d="M49.0537 28.4677H50.0208V30.609H50.7729L52.2343 28.4677H53.3517L51.5358 31.0179L53.5666 33.8479H52.4062L50.7729 31.4914H50.0208V33.8479H49.0537V28.4677Z" fill="#2B2D33"/>
<path d="M56.1834 33.8479L53.9914 28.4677H55.0444L56.6884 32.6642H56.7099L58.268 28.4677H59.2565L56.3446 36H55.356L56.1834 33.8479Z" fill="#2B2D33"/>
<path d="M60.2185 28.4677H60.9707L61.0781 29.2209H61.0996C61.3503 28.9196 61.6118 28.7044 61.884 28.5753C62.1634 28.4461 62.4965 28.3816 62.8833 28.3816C63.2057 28.3816 63.4994 28.439 63.7644 28.5538C64.0294 28.6614 64.2587 28.8263 64.4521 29.0487C64.6455 29.2639 64.7923 29.5365 64.8926 29.8665C65.0001 30.1893 65.0538 30.5695 65.0538 31.0071V31.3084C65.0538 31.7388 65.0001 32.1191 64.8926 32.449C64.7852 32.7719 64.6348 33.0444 64.4413 33.2668C64.2479 33.4892 64.0187 33.6578 63.7537 33.7726C63.4886 33.8802 63.1985 33.934 62.8833 33.934C62.518 33.934 62.2028 33.8766 61.9377 33.7618C61.6799 33.647 61.4363 33.4605 61.2071 33.2023H61.1856V36H60.2185V28.4677ZM62.6147 33.0516C63.0516 33.0516 63.3991 32.9117 63.6569 32.632C63.9148 32.345 64.0438 31.9038 64.0438 31.3084V31.0071C64.0438 30.4261 63.9112 29.9921 63.6462 29.7051C63.3883 29.411 63.0445 29.2639 62.6147 29.2639C62.1777 29.2639 61.8303 29.4074 61.5724 29.6944C61.3145 29.9741 61.1856 30.4117 61.1856 31.0071V31.3084C61.1856 31.8895 61.3145 32.3271 61.5724 32.6212C61.8374 32.9082 62.1849 33.0516 62.6147 33.0516Z" fill="#2B2D33"/>
<path d="M68.3881 33.934C67.6646 33.934 67.088 33.708 66.6582 33.2561C66.2355 32.8041 66.0242 32.137 66.0242 31.2546V30.9533C66.0242 30.5444 66.0815 30.1822 66.1961 29.8665C66.3108 29.5509 66.4684 29.2819 66.6689 29.0595C66.8767 28.8371 67.1238 28.6685 67.4103 28.5538C67.704 28.439 68.03 28.3816 68.3881 28.3816C68.7248 28.3816 69.0221 28.4282 69.28 28.5215C69.545 28.6076 69.7707 28.7259 69.9569 28.8766C70.1432 29.0272 70.2936 29.2066 70.4082 29.4146C70.5228 29.6226 70.6016 29.845 70.6446 30.0817H69.6346C69.5558 29.8522 69.4197 29.6585 69.2263 29.5007C69.04 29.3429 68.7785 29.2639 68.4419 29.2639C68.0121 29.2639 67.6682 29.4038 67.4103 29.6836C67.1596 29.9562 67.0343 30.3794 67.0343 30.9533V31.2546C67.0343 31.8787 67.1596 32.3343 67.4103 32.6212C67.6682 32.9082 68.0121 33.0516 68.4419 33.0516C68.7785 33.0516 69.04 32.9691 69.2263 32.8041C69.4197 32.632 69.5558 32.406 69.6346 32.1262H70.6446C70.6016 32.3916 70.5228 32.6356 70.4082 32.8579C70.2936 33.0731 70.1432 33.2632 69.9569 33.4282C69.7707 33.5861 69.545 33.7116 69.28 33.8049C69.0221 33.8909 68.7248 33.934 68.3881 33.934Z" fill="#2B2D33"/>
<path d="M76.8218 28.4677H77.7888V33.8479H76.8218V28.4677ZM71.7716 28.4677H72.7386V30.1893H73.8131C74.551 30.1893 75.0918 30.3507 75.4357 30.6736C75.7867 30.9964 75.9622 31.4447 75.9622 32.0186C75.9622 32.5853 75.7867 33.0337 75.4357 33.3637C75.0846 33.6865 74.5438 33.8479 73.8131 33.8479H71.7716V28.4677ZM72.7386 31.0717V32.9655H73.7594C74.1964 32.9655 74.5044 32.8866 74.6835 32.7288C74.8626 32.571 74.9521 32.3343 74.9521 32.0186C74.9521 31.7102 74.859 31.477 74.6728 31.3192C74.4937 31.1542 74.1892 31.0717 73.7594 31.0717H72.7386Z" fill="#2B2D33"/>
<path d="M82.1402 26.3156H86.8143V27.241H83.1502V29.5114H86.1696V30.4368H83.1502V32.9225H86.8143V33.8479H82.1402V26.3156Z" fill="#2B2D33"/>
<path d="M88.1528 26.3156H92.612V27.241H89.1628V33.8479H88.1528V26.3156Z" fill="#2B2D33"/>
<path d="M95.9363 33.934C95.5065 33.934 95.1196 33.873 94.7758 33.7511C94.4391 33.6291 94.1454 33.4605 93.8947 33.2453C93.6511 33.0229 93.4506 32.7647 93.293 32.4706C93.1354 32.1693 93.0315 31.8393 92.9814 31.4806H94.0559C94.1633 31.9325 94.3711 32.302 94.6791 32.5889C94.9943 32.8687 95.4133 33.0086 95.9363 33.0086C96.5451 33.0086 97.0394 32.797 97.4191 32.3737C97.8059 31.9505 98.0172 31.3228 98.053 30.4906H95.0229V29.5652H98.053C98.0172 28.7833 97.8059 28.1879 97.4191 27.779C97.0394 27.3629 96.5451 27.1549 95.9363 27.1549C95.6784 27.1549 95.442 27.1908 95.2271 27.2625C95.0193 27.3342 94.8367 27.4347 94.6791 27.5638C94.5287 27.6929 94.3997 27.8436 94.2923 28.0157C94.1848 28.1879 94.106 28.3744 94.0559 28.5753H92.9814C93.0315 28.2453 93.1354 27.9404 93.293 27.6606C93.4506 27.3737 93.6511 27.1262 93.8947 26.9182C94.1454 26.703 94.4391 26.5344 94.7758 26.4124C95.1196 26.2905 95.5065 26.2295 95.9363 26.2295C96.4019 26.2295 96.8281 26.3084 97.2149 26.4662C97.6089 26.624 97.9456 26.8572 98.225 27.1657C98.5043 27.4669 98.7192 27.8364 98.8697 28.274C99.0273 28.7116 99.1061 29.2101 99.1061 29.7697V30.2862C99.1061 30.8744 99.0273 31.3981 98.8697 31.8572C98.7192 32.3092 98.5043 32.6894 98.225 32.9978C97.9456 33.3063 97.6125 33.5394 97.2257 33.6973C96.8388 33.8551 96.409 33.934 95.9363 33.934Z" fill="#2B2D33"/>
<path d="M103.188 28.4677H104.155V32.6642H104.177L106.519 28.4677H107.809V33.8479H106.842V29.6513H106.82L104.478 33.8479H103.188V28.4677Z" fill="#2B2D33"/>
<path d="M115.116 33.934C114.629 33.934 114.189 33.8551 113.795 33.6973C113.401 33.5394 113.06 33.3063 112.774 32.9978C112.494 32.6894 112.276 32.3092 112.118 31.8572C111.968 31.3981 111.893 30.8744 111.893 30.2862V29.7697C111.893 29.2101 111.968 28.7116 112.118 28.274C112.276 27.8364 112.494 27.4669 112.774 27.1657C113.06 26.8572 113.401 26.624 113.795 26.4662C114.196 26.3084 114.636 26.2295 115.116 26.2295C115.596 26.2295 116.033 26.3084 116.427 26.4662C116.828 26.624 117.169 26.8536 117.448 27.1549C117.734 27.4562 117.953 27.8292 118.103 28.274C118.261 28.7116 118.34 29.2101 118.34 29.7697V30.2862C118.34 30.8744 118.261 31.3945 118.103 31.8465C117.953 32.2984 117.734 32.6786 117.448 32.9871C117.169 33.2955 116.828 33.5323 116.427 33.6973C116.033 33.8551 115.596 33.934 115.116 33.934ZM115.116 33.0086C115.761 33.0086 116.284 32.7862 116.685 32.3414C117.086 31.8895 117.287 31.2044 117.287 30.2862V29.7697C117.287 29.3393 117.233 28.9626 117.126 28.6398C117.018 28.3098 116.868 28.0372 116.674 27.822C116.488 27.5997 116.262 27.4347 115.997 27.3271C115.732 27.2123 115.439 27.1549 115.116 27.1549C114.794 27.1549 114.5 27.2087 114.235 27.3163C113.97 27.4239 113.741 27.5889 113.547 27.8113C113.354 28.0265 113.204 28.2991 113.096 28.6291C112.996 28.9519 112.946 29.3321 112.946 29.7697V30.2862C112.946 30.7453 112.999 31.147 113.107 31.4914C113.214 31.8285 113.365 32.1119 113.558 32.3414C113.752 32.5638 113.981 32.7324 114.246 32.8472C114.511 32.9548 114.801 33.0086 115.116 33.0086Z" fill="#2B2D33"/>
<path d="M119.79 26.3156H124.249V27.241H120.8V33.8479H119.79V26.3156Z" fill="#2B2D33"/>
<path d="M127.573 33.934C127.144 33.934 126.757 33.873 126.413 33.7511C126.076 33.6291 125.783 33.4605 125.532 33.2453C125.288 33.0229 125.088 32.7647 124.93 32.4706C124.772 32.1693 124.669 31.8393 124.618 31.4806H125.693C125.8 31.9325 126.008 32.302 126.316 32.5889C126.631 32.8687 127.05 33.0086 127.573 33.0086C128.182 33.0086 128.677 32.797 129.056 32.3737C129.443 31.9505 129.654 31.3228 129.69 30.4906H126.66V29.5652H129.69C129.654 28.7833 129.443 28.1879 129.056 27.779C128.677 27.3629 128.182 27.1549 127.573 27.1549C127.316 27.1549 127.079 27.1908 126.864 27.2625C126.656 27.3342 126.474 27.4347 126.316 27.5638C126.166 27.6929 126.037 27.8436 125.929 28.0157C125.822 28.1879 125.743 28.3744 125.693 28.5753H124.618C124.669 28.2453 124.772 27.9404 124.93 27.6606C125.088 27.3737 125.288 27.1262 125.532 26.9182C125.783 26.703 126.076 26.5344 126.413 26.4124C126.757 26.2905 127.144 26.2295 127.573 26.2295C128.039 26.2295 128.465 26.3084 128.852 26.4662C129.246 26.624 129.583 26.8572 129.862 27.1657C130.141 27.4669 130.356 27.8364 130.507 28.274C130.664 28.7116 130.743 29.2101 130.743 29.7697V30.2862C130.743 30.8744 130.664 31.3981 130.507 31.8572C130.356 32.3092 130.141 32.6894 129.862 32.9978C129.583 33.3063 129.25 33.5394 128.863 33.6973C128.476 33.8551 128.046 33.934 127.573 33.934Z" fill="#2B2D33"/>
<path d="M53.3896 13.2356H52.4856V20.1071H49.0547V3.85681H52.4856V11.6918L53.2969 10.6587L58.1651 3.85681H62.0827L56.9364 10.6587L56.241 11.5409L56.9828 12.4695L62.8709 20.1071H58.6287L53.3896 13.2356Z" fill="#2B2D33"/>
<path d="M62.8686 11.982C62.8686 10.651 63.0386 9.45931 63.3786 8.4069C63.7186 7.3545 64.2054 6.47234 64.839 5.76042C65.4881 5.03302 66.2763 4.48361 67.2035 4.11217C68.1308 3.72526 69.1817 3.5318 70.3562 3.5318C71.608 3.5318 72.6976 3.74073 73.6248 4.1586C74.5676 4.56099 75.348 5.13362 75.9662 5.87649C76.5998 6.61936 77.0712 7.50926 77.3803 8.54619C77.7048 9.58312 77.8671 10.7284 77.8671 11.982C77.8671 13.313 77.6893 14.5046 77.3339 15.5571C76.9939 16.6095 76.4994 17.4994 75.8503 18.2267C75.2012 18.9387 74.413 19.4881 73.4857 19.875C72.5585 20.2464 71.5153 20.4322 70.3562 20.4322C69.1044 20.4322 68.0072 20.231 67.0644 19.8286C66.1372 19.4107 65.3567 18.8303 64.7231 18.0875C64.1049 17.3446 63.6413 16.4547 63.3322 15.4178C63.0231 14.3808 62.8686 13.2356 62.8686 11.982ZM66.5081 11.982C66.5081 12.7868 66.5854 13.5219 66.7399 14.1874C66.8944 14.8529 67.1263 15.4255 67.4353 15.9053C67.7444 16.385 68.1385 16.7565 68.6176 17.0196C69.1121 17.2827 69.6917 17.4142 70.3562 17.4142C71.5771 17.4142 72.5276 16.9964 73.2076 16.1606C73.8876 15.3249 74.2276 13.932 74.2276 11.982C74.2276 11.2082 74.158 10.4885 74.0189 9.823C73.8798 9.15751 73.648 8.58488 73.3235 8.10511C73.0144 7.60986 72.6126 7.23069 72.118 6.96759C71.6389 6.68901 71.0517 6.54972 70.3562 6.54972C69.1508 6.54972 68.2081 6.98306 67.5281 7.84975C66.8481 8.71643 66.5081 10.0938 66.5081 11.982Z" fill="#2B2D33"/>
<path d="M90.6764 13.3981H84.1855V20.1071H80.7546V3.85681H84.1855V10.3802H90.6764V3.85681H94.1072V20.1071H90.6764V13.3981Z" fill="#2B2D33"/>
<path d="M110.312 6.87473H105.166V20.1071H101.735V6.87473H96.5889V3.85681H110.312V6.87473Z" fill="#2B2D33"/>
<path d="M123.345 11.1462V9.6605L122.233 11.1695L115.58 20.1071H113.03V3.85681H116.46V12.6088V14.3035L117.62 12.6088L124.203 3.85681H126.776V20.1071H123.345V11.1462Z" fill="#2B2D33"/>
<path d="M140.167 13.3981H133.676V20.1071H130.246V3.85681H133.676V10.3802H140.167V3.85681H143.598V20.1071H140.167V13.3981Z" fill="#2B2D33"/>
<path d="M153.405 10.9373L153.996 11.982L154.472 10.8445L157.114 3.85681H160.707L156.002 15.1624C155.646 16.0291 155.291 16.7797 154.935 17.4142C154.58 18.0488 154.201 18.5827 153.799 19.0161C153.397 19.4339 152.949 19.7512 152.455 19.9679C151.96 20.1691 151.388 20.2696 150.739 20.2696C150.183 20.2696 149.743 20.2387 149.418 20.1768C149.093 20.1149 148.73 19.9601 148.328 19.7125L149.186 16.9499C149.48 17.0892 149.743 17.1743 149.974 17.2053C150.222 17.2363 150.477 17.2517 150.739 17.2517C151.543 17.2517 152.099 16.7101 152.408 15.6267L145.802 3.85681H149.835L153.405 10.9373Z" fill="#2B2D33"/>
<path d="M169.545 10.9373L170.136 11.982L170.611 10.8445L173.254 3.85681H176.847L172.141 15.1624C171.785 16.0291 171.43 16.7797 171.074 17.4142C170.719 18.0488 170.34 18.5827 169.939 19.0161C169.537 19.4339 169.089 19.7512 168.594 19.9679C168.1 20.1691 167.528 20.2696 166.879 20.2696C166.322 20.2696 165.882 20.2387 165.557 20.1768C165.233 20.1149 164.87 19.9601 164.468 19.7125L165.325 16.9499C165.619 17.0892 165.882 17.1743 166.114 17.2053C166.361 17.2363 166.616 17.2517 166.879 17.2517C167.682 17.2517 168.239 16.7101 168.548 15.6267L161.941 3.85681H165.975L169.545 10.9373Z" fill="#2B2D33"/>
<path d="M192.569 11.9588L192.566 9.6605L191.688 11.1462L187.932 17.2053H186.866L182.879 11.123L182.134 9.95068L182.137 11.9355V20.1071H178.892V3.85681H181.998L186.681 11.3552L187.619 12.8525L192.916 3.85681H196V20.1071H192.569V11.9588Z" fill="#2B2D33"/>
<path fill-rule="evenodd" clip-rule="evenodd" d="M34.4891 1.12907C35.2197 1.86073 35.2197 3.04699 34.4891 3.77865L5.51212 32.7971C4.7815 33.5288 3.59694 33.5288 2.86632 32.7971C2.13571 32.0655 2.13571 30.8792 2.86632 30.1475L31.8433 1.12907C32.5739 0.397407 33.7585 0.397407 34.4891 1.12907Z" fill="#FBC70A"/>
<path fill-rule="evenodd" clip-rule="evenodd" d="M36.7869 12.1359C37.5287 12.8563 37.5469 14.0424 36.8276 14.7852L18.2823 33.9374C17.563 34.6802 16.3786 34.6985 15.6368 33.9782C14.8951 33.2578 14.8768 32.0717 15.5961 31.3289L34.1414 12.1767C34.8607 11.4339 36.0451 11.4156 36.7869 12.1359Z" fill="#F35C22"/>
<path fill-rule="evenodd" clip-rule="evenodd" d="M20.0006 15.6383C20.7312 16.37 20.7312 17.5563 20.0006 18.2879L5.51212 32.7972C4.7815 33.5288 3.59694 33.5288 2.86632 32.7972C2.13571 32.0655 2.13571 30.8792 2.86632 30.1476L17.3548 15.6383C18.0854 14.9067 19.27 14.9067 20.0006 15.6383Z" fill="#60A01C"/>
<path fill-rule="evenodd" clip-rule="evenodd" d="M21.739 0.548746C22.4697 1.28041 22.4697 2.46667 21.739 3.19833L3.19376 21.7701C2.46314 22.5018 1.27858 22.5018 0.547962 21.7701C-0.182654 21.0385 -0.182654 19.8522 0.547962 19.1206L19.0932 0.548746C19.8239 -0.182915 21.0084 -0.182915 21.739 0.548746Z" fill="#326EEA"/>
</svg>
