<svg width="36" height="36" viewBox="0 0 36 36" fill="none" xmlns="http://www.w3.org/2000/svg">
<g clip-path="url(#clip0_1714_6156)">
<path d="M18 0C20.4375 0 22.7607 0.486328 24.8848 1.36523L24.917 1.37988C27.1055 2.29102 29.0771 3.62402 30.7266 5.27637C32.3848 6.93164 33.7207 8.91504 34.6348 11.1211C35.5166 13.2422 36 15.5684 36 18.0029C36 20.4404 35.5137 22.7637 34.6348 24.8877L34.6201 24.9199C33.7061 27.1084 32.376 29.0801 30.7236 30.7295C29.0684 32.3877 27.085 33.7236 24.8789 34.6377C22.7578 35.5195 20.4316 36.0029 17.9971 36.0029C15.5625 36.0029 13.2363 35.5166 11.1123 34.6377L11.0801 34.623C8.8916 33.7119 6.91992 32.3789 5.27051 30.7295L5.27344 30.7236C3.61523 29.0654 2.2793 27.085 1.36523 24.8848C0.486328 22.7607 0 20.4375 0 18C0 15.5625 0.486328 13.2393 1.36523 11.1152L1.37988 11.083C2.29102 8.89453 3.62402 6.92285 5.27344 5.27344H5.27637C6.93457 3.61523 8.91504 2.2793 11.1182 1.36523C13.2393 0.486328 15.5625 0 18 0ZM4.97754 27.6768L5.04785 27.6357C6.77637 26.6719 11.2764 26.3525 13.1455 25.0488C13.2832 24.8438 13.4297 24.5449 13.5732 24.2197C13.7871 23.7305 13.9834 23.1943 14.1064 22.8311C13.585 22.2158 13.1367 21.5215 12.709 20.8389L11.2939 18.5859C10.7783 17.8125 10.5088 17.1094 10.4912 16.5293C10.4824 16.2568 10.5293 16.0107 10.6318 15.791C10.7373 15.5625 10.8984 15.3721 11.1182 15.2256C11.2207 15.1553 11.335 15.0967 11.4609 15.0527C11.3672 13.8311 11.335 12.293 11.3936 11.0039C11.4229 10.6992 11.4844 10.3916 11.5664 10.0869C11.9297 8.79492 12.835 7.75488 13.957 7.04004C14.5752 6.64453 15.2549 6.34863 15.9609 6.14941C16.4121 6.02051 15.5771 4.58496 16.043 4.53516C18.29 4.30371 21.9258 6.35742 23.4961 8.05371C24.2812 8.90332 24.7764 10.0313 24.8818 11.5225L24.7939 15.1963C25.1865 15.3164 25.4385 15.5654 25.5381 15.9668C25.6523 16.415 25.5293 17.042 25.1484 17.9004C25.1426 17.915 25.1338 17.9326 25.125 17.9473L23.5107 20.6045C22.9189 21.5801 22.3154 22.5615 21.5332 23.332C21.6064 23.4375 21.6797 23.54 21.75 23.6426C22.0693 24.1113 22.3916 24.5801 22.8047 24.999C22.8193 25.0137 22.8311 25.0283 22.8398 25.043C24.6973 26.3555 29.2178 26.6748 30.9521 27.6416L31.0225 27.6826C33.0352 24.9814 34.2246 21.6328 34.2246 18.0059C34.2246 13.5264 32.4082 9.46875 29.4727 6.53613C26.543 3.59766 22.4854 1.78125 18.0059 1.78125C13.5264 1.78125 9.46875 3.59766 6.53613 6.5332C3.59473 9.46289 1.77832 13.5205 1.77832 18C1.77832 21.627 2.96777 24.9756 4.97754 27.6768Z" fill="#2B2D33"/>
</g>
<defs>
<clipPath id="clip0_1714_6156">
<rect width="36" height="36" fill="white"/>
</clipPath>
</defs>
</svg>
