<svg width="40" height="40" viewBox="0 0 40 40" fill="none" xmlns="http://www.w3.org/2000/svg">
<path d="M20 40C31.0457 40 40 31.0457 40 20C40 8.95433 31.0457 0 20 0C8.95433 0 0 8.95433 0 20C0 31.0457 8.95433 40 20 40Z" fill="url(#paint0_linear_1834_5942)"/>
<path d="M7.44771 20.9785C9.78569 19.6906 12.3955 18.6158 14.834 17.5355C19.0292 15.766 23.241 14.0271 27.4954 12.4083C28.3231 12.1325 29.8104 11.8627 29.9562 13.0894C29.8764 14.8257 29.5479 16.5519 29.3225 18.2781C28.7506 22.0741 28.0896 25.8571 27.445 29.6406C27.2229 30.9008 25.6442 31.5532 24.634 30.7467C22.2064 29.1069 19.76 27.4831 17.3634 25.8052C16.5783 25.0075 17.3063 23.8619 18.0074 23.2922C20.0069 21.3217 22.1274 19.6476 24.0224 17.5752C24.5336 16.3408 23.0233 17.3811 22.5251 17.6999C19.7878 19.5862 17.1174 21.5877 14.2314 23.2456C12.7573 24.0571 11.0391 23.3636 9.56561 22.9107C8.24443 22.3637 6.30841 21.8126 7.44758 20.9786L7.44771 20.9785Z" fill="white"/>
<defs>
<linearGradient id="paint0_linear_1834_5942" x1="15.0023" y1="1.668" x2="5.00233" y2="25" gradientUnits="userSpaceOnUse">
<stop stop-color="#37AEE2"/>
<stop offset="1" stop-color="#1E96C8"/>
</linearGradient>
</defs>
</svg>
