<svg width="40" height="40" viewBox="0 0 40 40" fill="none" xmlns="http://www.w3.org/2000/svg">
<path d="M20 40C31.0457 40 40 31.0457 40 20C40 8.9543 31.0457 0 20 0C8.9543 0 0 8.9543 0 20C0 31.0457 8.9543 40 20 40Z" fill="#25D366"/>
<path fill-rule="evenodd" clip-rule="evenodd" d="M20.6596 31.1273H20.6546C18.6642 31.1266 16.7085 30.6272 14.9714 29.6797L8.66699 31.3335L10.3542 25.1709C9.31344 23.3673 8.76581 21.3214 8.7667 19.2254C8.76931 12.6682 14.1043 7.3335 20.6594 7.3335C23.8409 7.33487 26.8268 8.57338 29.0722 10.8213C31.3175 13.0692 32.5534 16.0571 32.5521 19.2347C32.5495 25.7904 27.2166 31.1246 20.6596 31.1273ZM15.2634 27.5268L15.6244 27.7411C17.142 28.6417 18.8817 29.1182 20.6554 29.1189H20.6594C26.1076 29.1189 30.5418 24.6845 30.544 19.2342C30.545 16.5929 29.5178 14.1095 27.6516 12.2411C25.7854 10.3727 23.3035 9.34321 20.6633 9.34229C15.211 9.34229 10.7767 13.7762 10.7745 19.2262C10.7738 21.0939 11.2963 22.9129 12.2858 24.4866L12.5208 24.8606L11.5223 28.5082L15.2634 27.5268ZM26.2434 21.7952C26.4507 21.8954 26.5907 21.963 26.6504 22.0628C26.7247 22.1867 26.7247 22.7817 26.4772 23.4759C26.2295 24.17 25.0423 24.8035 24.4713 24.8888C23.9594 24.9653 23.3116 24.9973 22.5997 24.771C22.1681 24.6341 21.6147 24.4513 20.9057 24.1451C18.1199 22.9422 16.2373 20.2422 15.8815 19.7319C15.8566 19.6961 15.8391 19.6711 15.8294 19.6581L15.827 19.6549C15.6697 19.4451 14.616 18.0392 14.616 16.5842C14.616 15.2154 15.2884 14.4979 15.5979 14.1677C15.6191 14.1451 15.6386 14.1243 15.6561 14.1052C15.9284 13.8077 16.2504 13.7333 16.4485 13.7333C16.6465 13.7333 16.8449 13.7351 17.018 13.7438C17.0394 13.7449 17.0616 13.7448 17.0846 13.7446C17.2577 13.7436 17.4736 13.7424 17.6866 14.2539C17.7685 14.4508 17.8884 14.7427 18.0148 15.0505C18.2705 15.673 18.5531 16.3608 18.6028 16.4604C18.6771 16.6091 18.7266 16.7826 18.6275 16.981C18.6127 17.0107 18.5989 17.0388 18.5858 17.0656C18.5114 17.2175 18.4567 17.3292 18.3304 17.4767C18.2807 17.5346 18.2294 17.5971 18.1781 17.6596C18.0759 17.7841 17.9737 17.9086 17.8847 17.9973C17.7359 18.1455 17.581 18.3062 17.7544 18.6037C17.9277 18.9012 18.5241 19.8743 19.4075 20.6623C20.3571 21.5093 21.1824 21.8673 21.6008 22.0487C21.6824 22.0842 21.7486 22.1129 21.7972 22.1372C22.0942 22.286 22.2676 22.2611 22.4409 22.0628C22.6143 21.8645 23.1837 21.1951 23.3818 20.8976C23.5799 20.6002 23.7781 20.6498 24.0504 20.7489C24.3228 20.8482 25.7838 21.567 26.0809 21.7157C26.1389 21.7447 26.1932 21.7709 26.2434 21.7952Z" fill="#FDFDFD"/>
</svg>
