<svg width="120" height="120" viewBox="0 0 120 120" fill="none" xmlns="http://www.w3.org/2000/svg">
<circle cx="60" cy="60" r="57" fill="#0095DA" stroke="#F4F4F4" stroke-width="6"/>
<path d="M72.9369 28H41.2914C41.7685 37.9597 34.8495 44.1845 26 45.6479C28.1256 68.0571 39.6429 84.6566 59.5976 92.9782C75.4095 86.3165 88.2499 73.5612 92.1541 55.6512C95.7112 39.2483 87.8812 28 72.9369 28Z" fill="white"/>
<path d="M72.9369 28H41.2914C41.7685 37.9597 34.8495 44.1845 26 45.6479C28.1256 68.0571 39.6429 84.6566 59.5976 92.9782C75.4095 86.3165 88.2499 73.5612 92.1541 55.6512C95.7112 39.2483 87.8812 28 72.9369 28ZM89.7899 55.127C86.428 70.962 75.0625 83.6519 59.5976 90.3572C41.4432 82.5161 30.9453 66.9651 28.6679 47.5481C36.8016 45.4294 43.135 39.292 43.6989 30.3807H73.067C87.4257 30.2933 92.7831 41.6946 89.7899 55.127Z" fill="#0095DA"/>
<path d="M57.8407 66.703H61.3328L59.7061 58.7745L57.8407 66.703Z" fill="#0095DA"/>
<path d="M73.0453 32.5649H45.5859C44.3062 40.6462 38.5801 46.4778 31.0537 49.0769C33.6348 66.9651 43.6339 80.8562 59.641 87.9983C73.7177 81.5551 84.4108 70.0884 87.7294 54.6465C90.3105 42.6774 86.0375 32.4993 73.0453 32.5649ZM35.6954 50.8679H52.6352L60.6604 41.8474L57.2334 40.6025C56.8647 40.4496 56.8864 40.0783 57.2334 40.0783H60.9858L62.157 36.1468C62.2221 35.8847 62.5691 35.9503 62.5691 36.1468L62.9378 40.0783H66.5384C66.7986 40.0783 66.9071 40.4059 66.4299 40.6025L62.6125 41.913L56.6261 50.8679H58.5999C58.4047 51.5887 58.1878 52.4624 57.9275 53.4671L54.7825 53.6855L54.4354 54.2097C53.5461 55.3017 51.3555 58.0538 50.0541 58.3595C49.2298 58.5561 48.4056 57.7261 48.7527 56.6559C49.0563 55.6294 49.8805 54.7776 50.3577 53.8602L35.6303 51.9819C34.9579 51.9819 35.023 50.8679 35.6954 50.8679ZM78.0774 63.4923C76.9495 63.4923 76.9061 63.9509 76.9061 65.0867V70.3723C76.9061 71.5517 76.9929 71.9449 78.0774 71.9449V72.9933H73.5008V71.9449C74.5419 71.9449 74.6938 71.5736 74.6938 70.3723V66.2661L70.9848 70.8091V71.0057C70.9848 71.6391 71.3318 71.9012 72.1777 71.9012V72.9496H60.7905V71.9012C61.6148 71.9012 62.1353 71.8138 62.1353 71.0276C62.1353 70.547 61.9184 69.2584 61.5714 67.8605H57.4503L56.9298 69.9792C56.561 71.377 56.6695 71.9012 58.1661 71.9012V72.9496H48.6876V71.9012C49.8155 71.9012 49.9239 71.5299 49.9239 70.3068V65.4143L47.0392 72.622L44.111 65.1959V70.4378C44.111 71.4644 44.2195 71.9012 45.3474 71.9012V72.9496H41.8553V71.9012C43.0482 71.9012 43.0916 71.1804 43.0916 70.1757V65.0648C43.0916 64.1694 43.0916 63.4704 41.9421 63.4704V62.422H45.6944L47.7116 67.8605L49.7287 62.422H53.3292V63.4704C52.2014 63.4704 52.1797 63.9291 52.1797 65.0648V70.3505C52.1797 71.377 52.2881 71.661 52.5918 71.792C53.2642 72.0541 54.5872 71.9886 54.956 71.2241C55.303 70.4815 55.585 69.6952 55.7802 68.8871L60.6387 49.6667L65.0201 68.5376C65.4972 70.5689 65.7792 71.0931 66.213 71.5081C66.6685 71.8794 68.0783 72.1851 68.6206 71.6173C68.729 71.5081 68.8158 71.2678 68.8158 70.3723V65.0867C68.8158 63.8854 68.729 63.4923 67.6229 63.4923V62.4439H72.2211V63.4923C71.0932 63.4923 71.0282 63.9728 71.0282 65.0867V69.2366L74.7371 64.6717V64.4751C74.7371 63.9946 74.4335 63.4923 73.5442 63.4923V62.4439H78.1208V63.4923H78.0774ZM77.6219 51.9819L63.0897 53.0739L62.5691 50.8461H77.6219C78.4027 50.8679 78.4461 51.96 77.6219 51.9819Z" fill="#0095DA"/>
</svg>
