<svg width="120" height="120" viewBox="0 0 120 120" fill="none" xmlns="http://www.w3.org/2000/svg">
<circle cx="60" cy="60" r="57" fill="#37B34A" stroke="#F4F4F4" stroke-width="6"/>
<path d="M40.7323 73.49C40.7323 71.324 41.6443 69.462 44.2283 69.462C46.8503 69.462 47.7243 71.324 47.7243 73.49C47.7243 75.694 46.8503 77.518 44.2283 77.518C41.6443 77.518 40.7323 75.656 40.7323 73.49ZM42.4043 73.49C42.4043 74.782 42.6703 75.96 44.2663 75.96C45.8623 75.96 46.1283 74.744 46.1283 73.49C46.1283 72.198 45.8623 71.02 44.2663 71.02C42.6323 70.982 42.4043 72.198 42.4043 73.49ZM82.0383 69.614L83.4823 72.008L84.9263 69.614H86.8643L84.5463 73.3L87.0923 77.29H85.1543L83.5203 74.592L81.8863 77.29H79.9483L82.4943 73.3L80.1763 69.614H82.0383ZM74.9703 72.692H78.0103V74.174H74.9703V75.77H78.5423V77.328H73.3363V69.614H78.5423V71.172H74.9703V72.692ZM67.9783 77.328V71.172H65.8503V69.614H71.7403V71.172H69.6123V77.328H67.9783ZM59.5043 77.328H57.9463V69.652H59.5803V74.402L62.6203 69.652H64.1783V77.328H62.5443V72.578L59.5043 77.328ZM48.7123 75.808C49.3963 75.846 49.8523 75.542 50.0043 74.934C50.4603 73.262 50.4983 71.4 50.7263 69.652H55.6663V77.328H54.0323V71.172H52.1703C52.0563 72.236 51.8663 74.098 51.5623 75.276C51.2203 76.606 50.1183 77.404 48.6743 77.366V75.808H48.7123ZM32.9043 77.328V69.652H38.9083V77.328H37.2743V71.172H34.5383V77.328H32.9043Z" fill="white"/>
<path d="M66.9143 80.254L66.0783 82.61C65.9643 82.914 65.7743 83.104 65.4703 83.142C65.3943 83.142 65.2803 83.142 65.2043 83.104V82.8C65.2803 82.838 65.3943 82.838 65.4703 82.838C65.6223 82.8 65.7363 82.686 65.7743 82.534L65.8883 82.23L65.0903 80.292H65.4323L66.0403 81.85L66.6103 80.292L66.9143 80.254ZM68.3203 90.78H67.9023L67.2183 89.906H67.0283V90.78H66.7243V88.842H67.0283V89.64H67.2183L67.8643 88.842H68.2443L67.4843 89.792L68.3203 90.78ZM49.2823 82.192H48.8643L48.1803 81.318H47.9903V82.192H47.6863V80.254H47.9903V81.052H48.2183L48.8643 80.254H49.2443L48.4843 81.204L49.2823 82.192ZM63.4183 81.242C63.4183 80.976 63.6083 80.596 64.0643 80.596C64.5203 80.596 64.6343 80.862 64.6343 81.28C64.6343 81.698 64.4443 81.964 64.0263 81.964C63.5703 81.964 63.4183 81.622 63.4183 81.242ZM63.3803 80.634C63.4183 80.33 63.5703 80.064 63.7603 79.95C63.9503 79.836 64.1783 79.798 64.4063 79.722C64.6343 79.646 64.7483 79.494 64.7483 79.304H64.4443C64.4443 79.342 64.4443 79.456 64.2923 79.494C64.0643 79.57 63.8363 79.608 63.6463 79.722C63.1523 80.026 63.0763 80.634 63.1143 81.128C63.1143 81.698 63.3803 82.23 64.0263 82.23C64.5963 82.23 64.9763 81.85 64.9763 81.242C64.9763 80.634 64.7103 80.292 64.1403 80.292C63.8363 80.33 63.5323 80.444 63.3803 80.634ZM41.3403 80.862C41.3403 80.216 41.6063 79.798 42.2903 79.798C42.5183 79.798 42.7843 79.836 42.9743 79.912V79.57C42.7463 79.494 42.5183 79.494 42.2903 79.494C41.4163 79.494 40.9603 80.026 40.9603 80.9C40.9603 81.774 41.4163 82.306 42.2903 82.306C42.5183 82.306 42.7843 82.268 42.9743 82.23V81.888C42.7843 81.964 42.5183 82.002 42.2903 82.002C41.6063 81.926 41.3403 81.508 41.3403 80.862ZM70.8283 81.242C70.8283 80.52 71.2463 80.216 71.8163 80.216C71.9303 80.216 72.1583 80.254 72.2723 80.292L72.2343 80.558C72.0823 80.52 71.8923 80.482 71.7403 80.482C71.3983 80.482 71.1323 80.71 71.1323 81.242C71.1323 81.774 71.3983 81.964 71.7403 82.002C71.8923 82.002 72.0823 82.002 72.2343 81.964L72.2723 82.23C72.1203 82.268 71.9303 82.268 71.8163 82.268C71.2463 82.268 70.8283 81.926 70.8283 81.242ZM63.6083 90.78V89.108H63.0383C63.0003 89.716 62.9243 90.172 62.8103 90.438C62.6963 90.704 62.5443 90.818 62.2023 90.78V90.476C62.3543 90.476 62.5063 90.438 62.5823 90.286C62.6963 90.02 62.7343 89.526 62.8103 88.842H63.9503V90.78H63.6083ZM72.3863 89.83C72.3863 89.412 72.5383 89.108 72.9943 89.108C73.4503 89.108 73.6023 89.412 73.6023 89.83C73.6023 90.248 73.4503 90.552 72.9943 90.552C72.5003 90.552 72.3863 90.248 72.3863 89.83ZM73.8683 89.83C73.8683 89.222 73.5643 88.842 72.9563 88.842C72.3483 88.842 72.0443 89.26 72.0443 89.83C72.0443 90.438 72.3483 90.818 72.9563 90.818C73.5643 90.818 73.8683 90.4 73.8683 89.83ZM68.7763 89.83C68.7763 89.412 68.9283 89.108 69.3843 89.108C69.8403 89.108 69.9923 89.412 69.9923 89.83C69.9923 90.248 69.8403 90.552 69.3843 90.552C68.9283 90.552 68.7763 90.248 68.7763 89.83ZM70.2963 89.83C70.2963 89.222 69.9923 88.842 69.3843 88.842C68.7763 88.842 68.4723 89.26 68.4723 89.83C68.4723 90.438 68.7763 90.818 69.3843 90.818C69.9923 90.818 70.2963 90.4 70.2963 89.83ZM47.0783 82.192H46.7743V81.318H45.7863V82.192H45.4823V80.254H45.7863V81.052H46.7743V80.254H47.0783V82.192ZM50.8403 80.52H50.2703V82.192H49.9663V80.52H49.3583V80.254H50.8403V80.52ZM51.9803 81.394H50.9543V81.09H51.9803V81.394ZM54.6783 82.192H54.3743V79.76H52.9683V82.192H52.6643V79.494H54.6783V82.192ZM58.0223 80.52V82.192H57.7183V80.52H57.1483V80.254H58.6303V80.52H58.0223ZM70.7143 80.52H69.8783V82.192H69.5743V80.254H70.7143V80.52ZM74.2863 82.192H73.8683L73.1843 81.318H72.9943V82.192H72.6903V80.254H72.9943V81.052H73.1843L73.8303 80.254H74.2103L73.4503 81.204L74.2863 82.192ZM48.4083 90.78V88.348H47.0023V90.78H46.6983V88.082H48.7503V90.78H48.4083ZM52.0183 89.108V90.78H51.7143V89.108H51.1443V88.842H52.6263V89.108H52.0183ZM58.1743 90.78V88.082H59.1243C59.5803 88.082 59.8843 88.31 59.8463 88.804C59.8463 89.07 59.6943 89.26 59.4663 89.374C59.7703 89.45 59.9603 89.716 59.9603 90.02C59.9603 90.514 59.5803 90.78 59.1243 90.78H58.1743ZM58.4783 88.348V89.222H58.9723C59.2763 89.222 59.5043 89.07 59.5043 88.728C59.5043 88.462 59.3523 88.348 59.0103 88.348H58.4783ZM58.4783 89.526V90.514H59.0863C59.3903 90.514 59.6563 90.362 59.6563 90.02C59.6563 89.716 59.4663 89.526 59.0103 89.526H58.4783ZM71.9303 89.108H71.1703V90.78H70.8663V88.842H71.9303V89.108ZM56.9203 81.318H55.5143C55.5143 81.812 55.8183 81.964 56.1603 81.964C56.3883 81.964 56.6163 81.926 56.7683 81.812V82.116C56.5783 82.192 56.3123 82.23 56.1223 82.23C55.5903 82.23 55.1723 81.888 55.1723 81.204C55.1723 80.634 55.4763 80.178 56.0463 80.178C56.7303 80.216 56.9583 80.634 56.9203 81.318ZM56.6163 81.052C56.6163 80.672 56.3883 80.482 56.0843 80.482C55.7043 80.482 55.5143 80.71 55.5143 81.052H56.6163ZM60.4543 81.318H59.0483C59.0483 81.812 59.3523 81.964 59.6943 81.964C59.9223 81.964 60.1503 81.926 60.3023 81.812V82.116C60.1123 82.192 59.8463 82.23 59.6563 82.23C59.1243 82.23 58.7063 81.888 58.7063 81.204C58.7063 80.634 59.0103 80.178 59.5803 80.178C60.2643 80.216 60.4923 80.634 60.4543 81.318ZM60.1503 81.052C60.1503 80.672 59.9223 80.482 59.6183 80.482C59.2383 80.482 59.0483 80.71 59.0483 81.052H60.1503ZM50.9163 89.906H49.5103C49.5103 90.4 49.8143 90.552 50.1563 90.552C50.3843 90.552 50.6123 90.514 50.7643 90.4V90.704C50.5743 90.78 50.3083 90.818 50.1183 90.818C49.5863 90.818 49.1683 90.476 49.1683 89.792C49.1683 89.222 49.4723 88.766 50.0423 88.766C50.7263 88.804 50.9543 89.222 50.9163 89.906ZM50.6123 89.64C50.6123 89.26 50.3843 89.07 50.0803 89.07C49.7003 89.07 49.5103 89.298 49.5103 89.64H50.6123ZM62.0503 89.906H60.6443C60.6443 90.4 60.9483 90.552 61.2903 90.552C61.5183 90.552 61.7083 90.514 61.8603 90.4V90.704C61.6703 90.78 61.4423 90.818 61.2523 90.818C60.7203 90.818 60.3023 90.476 60.3023 89.792C60.3023 89.222 60.6063 88.766 61.1763 88.766C61.8223 88.804 62.0503 89.222 62.0503 89.906ZM61.7083 89.64C61.7083 89.26 61.4803 89.07 61.1763 89.07C60.7963 89.07 60.6063 89.298 60.6063 89.64H61.7083ZM77.3263 79.646C77.4023 79.76 77.5543 79.836 77.7063 79.836C77.8583 79.836 78.0103 79.76 78.0863 79.646L78.2763 79.798C78.1623 79.988 77.9343 80.064 77.7063 80.064C77.4783 80.064 77.2883 79.988 77.1363 79.798L77.3263 79.646ZM77.2123 82.192H76.9083V80.254H77.1743V81.774C77.2123 81.66 77.2883 81.546 77.3643 81.432L78.1623 80.254H78.4663V82.192H78.2383V80.672C78.2003 80.786 78.1243 80.9 78.0483 81.014L77.2123 82.192ZM74.9703 82.192H74.6663V80.254H74.9323V81.774C74.9703 81.66 75.0463 81.546 75.1223 81.432L75.9203 80.254H76.2243V82.192H75.9583V80.672C75.9203 80.786 75.8443 80.9 75.7683 81.014L74.9703 82.192ZM64.8243 90.78H64.5203V88.842H64.7863V90.362C64.8243 90.248 64.9003 90.134 64.9763 90.02L65.7743 88.842H66.0783V90.78H65.8123V89.26C65.7743 89.374 65.6983 89.488 65.6223 89.602L64.8243 90.78ZM53.1963 90.552V91.654H52.8923V88.842H53.1583L53.1963 89.108C53.3863 88.88 53.6523 88.804 53.8803 88.842C54.4503 88.842 54.6783 89.336 54.6783 89.868C54.6403 90.4 54.3743 90.856 53.8043 90.856C53.4623 90.818 53.2723 90.666 53.1963 90.552ZM53.1963 89.83C53.1963 90.21 53.3103 90.552 53.7663 90.552C54.1843 90.552 54.3363 90.172 54.3743 89.792C54.3743 89.412 54.2603 89.032 53.8043 89.032C53.3103 89.07 53.1963 89.45 53.1963 89.83ZM67.5983 82.002V83.104H67.2943V80.292H67.5603L67.5983 80.558C67.7883 80.33 68.0543 80.254 68.2823 80.292C68.8523 80.292 69.0803 80.786 69.0803 81.318C69.0423 81.85 68.7763 82.306 68.2063 82.306C67.8643 82.23 67.6743 82.078 67.5983 82.002ZM67.5983 81.28C67.5983 81.66 67.7123 82.002 68.1683 82.002C68.5863 82.002 68.7383 81.622 68.7763 81.242C68.7763 80.862 68.6623 80.482 68.2063 80.482C67.7123 80.482 67.5983 80.862 67.5983 81.28ZM61.2143 82.002V83.104H60.9103V80.292H61.1763L61.2143 80.558C61.4043 80.33 61.6703 80.254 61.8983 80.292C62.4683 80.292 62.6963 80.786 62.6963 81.318C62.6583 81.85 62.3923 82.306 61.8223 82.306C61.4803 82.23 61.2903 82.078 61.2143 82.002ZM61.2143 81.28C61.2143 81.66 61.3283 82.002 61.7843 82.002C62.2023 82.002 62.3543 81.622 62.3923 81.242C62.3923 80.862 62.2783 80.482 61.8223 80.482C61.3283 80.482 61.2143 80.862 61.2143 81.28ZM56.1223 89.83V89.982C56.1223 90.286 55.9323 90.552 55.5903 90.552C55.4003 90.552 55.2483 90.438 55.2103 90.248C55.2103 89.792 55.6663 89.83 56.1223 89.83ZM55.0583 88.918V89.222C55.2103 89.146 55.4763 89.108 55.6663 89.108C55.8943 89.108 56.1223 89.222 56.1223 89.526V89.602C55.4003 89.564 54.9063 89.602 54.9063 90.248C54.9063 90.628 55.1723 90.818 55.5143 90.818C55.7803 90.818 55.9703 90.704 56.1223 90.552L56.1983 90.78H56.4643V89.526C56.4643 88.994 56.1223 88.842 55.7423 88.804C55.5143 88.804 55.2103 88.842 55.0583 88.918ZM44.5703 81.242V81.394C44.5703 81.698 44.3803 81.964 44.0383 81.964C43.8483 81.964 43.6963 81.85 43.6583 81.66C43.6583 81.204 44.1143 81.242 44.5703 81.242ZM43.5063 80.33V80.634C43.6583 80.558 43.9243 80.52 44.1143 80.52C44.3423 80.52 44.5703 80.634 44.5703 80.938V81.014C43.8483 80.976 43.3543 81.014 43.3543 81.66C43.3543 82.04 43.6203 82.23 43.9623 82.23C44.2283 82.23 44.4183 82.116 44.5703 81.964L44.6083 82.192H44.8743V80.938C44.8743 80.406 44.5323 80.254 44.1523 80.216C43.9623 80.216 43.6583 80.254 43.5063 80.33Z" fill="white"/>
<path d="M47.1543 86.486H46.7743L46.2803 85.726L45.7863 86.486H45.4063L46.0903 85.498L45.4063 84.548H45.7863L46.2423 85.27L46.6983 84.548H47.0783L46.3943 85.498L47.1543 86.486ZM59.4663 86.486H59.0483L58.3643 85.612H58.1743V86.486H57.8703V84.548H58.1743V85.346H58.3643L59.0103 84.548H59.3903L58.6303 85.498L59.4663 86.486ZM62.5063 83.94C62.5823 84.054 62.7343 84.13 62.8863 84.13C63.0383 84.13 63.1903 84.054 63.2663 83.94L63.4563 84.092C63.3423 84.282 63.1143 84.358 62.8863 84.358C62.6583 84.358 62.4683 84.282 62.3163 84.092L62.5063 83.94ZM62.3923 86.486H62.0883V84.548H62.3543V86.068C62.3923 85.954 62.4683 85.84 62.5443 85.726L63.3423 84.548H63.6463V86.486H63.4183V84.966C63.3803 85.08 63.3043 85.194 63.2283 85.308L62.3923 86.486ZM60.1503 86.486H59.8463V84.548H60.1123V86.068C60.1503 85.954 60.2263 85.84 60.3023 85.726L61.1003 84.548H61.4043V86.486H61.1383V84.966C61.1003 85.08 61.0243 85.194 60.9483 85.308L60.1503 86.486ZM50.0423 86.486H49.7383V84.548H50.0043V86.068C50.0423 85.954 50.1183 85.84 50.1943 85.726L50.9923 84.548H51.2963V86.486H51.0303V84.966C50.9923 85.08 50.9163 85.194 50.8403 85.308L50.0423 86.486ZM80.3663 86.486H80.0623V84.548H80.3283V86.068C80.3663 85.954 80.4423 85.84 80.5183 85.726L81.3163 84.548H81.6203V86.486H81.3543V84.966C81.3163 85.08 81.2403 85.194 81.1643 85.308L80.3663 86.486ZM78.2003 85.536C78.2003 84.814 78.6183 84.51 79.1883 84.51C79.3023 84.51 79.5303 84.548 79.6443 84.586L79.6063 84.852C79.4543 84.814 79.2643 84.776 79.1123 84.776C78.7703 84.776 78.5043 85.004 78.5043 85.536C78.5043 86.068 78.7703 86.258 79.1123 86.296C79.2643 86.296 79.4543 86.296 79.6063 86.258L79.6443 86.524C79.4923 86.562 79.3023 86.562 79.1883 86.562C78.5803 86.562 78.2003 86.22 78.2003 85.536ZM56.0463 85.536C56.0463 84.814 56.4643 84.51 57.0343 84.51C57.1483 84.51 57.3763 84.548 57.4903 84.586L57.4523 84.852C57.3003 84.814 57.1103 84.776 56.9583 84.776C56.6163 84.776 56.3503 85.004 56.3503 85.536C56.3503 86.068 56.6163 86.258 56.9583 86.296C57.1103 86.296 57.3003 86.296 57.4523 86.258L57.4903 86.524C57.3383 86.562 57.1483 86.562 57.0343 86.562C56.4643 86.562 56.0463 86.22 56.0463 85.536ZM35.8303 85.536C35.8303 85.118 35.9823 84.814 36.4383 84.814C36.8943 84.814 37.0463 85.118 37.0463 85.536C37.0463 85.954 36.8943 86.258 36.4383 86.258C35.9823 86.258 35.8303 85.954 35.8303 85.536ZM37.3503 85.536C37.3503 84.928 37.0463 84.548 36.4383 84.548C35.8303 84.548 35.5263 84.966 35.5263 85.536C35.5263 86.144 35.8303 86.524 36.4383 86.524C37.0463 86.524 37.3503 86.144 37.3503 85.536ZM38.9843 86.486V84.814H38.4143C38.3763 85.422 38.3003 85.878 38.1863 86.144C38.0723 86.41 37.9203 86.524 37.5783 86.486V86.22C37.7303 86.22 37.8823 86.182 37.9583 86.03C38.0723 85.764 38.1103 85.27 38.1863 84.586H39.3263V86.486H38.9843ZM42.8223 84.814V86.486H42.5183V84.814H41.9483V84.548H43.4303V84.814H42.8223ZM49.0923 86.486H48.7883V85.612H47.8003V86.486H47.4963V84.548H47.8003V85.346H48.7883V84.548H49.0923V86.486ZM53.4623 86.486H53.1583V85.726C53.0063 85.802 52.8163 85.802 52.5883 85.802C52.2463 85.802 51.9423 85.612 51.9423 85.118V84.51H52.2463V85.08C52.2463 85.422 52.4363 85.498 52.7023 85.498C52.8543 85.498 53.0443 85.46 53.1583 85.422V84.51H53.4623V86.486ZM69.0803 86.486H68.7763V85.612H67.7883V86.486H67.4843V84.548H67.7883V85.346H68.7763V84.548H69.0803V86.486ZM71.9683 86.486V84.548H72.8043C73.1083 84.548 73.3743 84.7 73.4123 85.004C73.4123 85.27 73.2983 85.422 73.1083 85.46C73.3743 85.498 73.5263 85.65 73.5263 85.916C73.5263 86.258 73.2223 86.486 72.9183 86.486H71.9683ZM72.2723 85.346H72.7283C72.9943 85.346 73.0703 85.232 73.0703 85.042C73.0703 84.89 72.9943 84.776 72.7663 84.776H72.2723V85.346ZM72.2723 85.65V86.258H72.8043C73.0703 86.258 73.1463 86.144 73.1463 85.954C73.1463 85.764 73.0323 85.65 72.7283 85.65H72.2723ZM83.5203 84.814H82.9503V86.486H82.6463V84.814H82.0383V84.548H83.5203V84.814ZM86.4843 84.814V86.486H86.1803V84.814H85.6103V84.548H87.0923V84.814H86.4843ZM85.3823 85.612H83.9763C83.9763 86.106 84.2803 86.258 84.6223 86.258C84.8503 86.258 85.0783 86.22 85.2303 86.106V86.41C85.0403 86.486 84.7743 86.524 84.5843 86.524C84.0523 86.524 83.6343 86.182 83.6343 85.498C83.6343 84.928 83.9383 84.472 84.5083 84.472C85.1923 84.51 85.4203 84.928 85.3823 85.612ZM85.0783 85.346C85.0783 84.966 84.8503 84.776 84.5463 84.776C84.1663 84.776 83.9763 85.004 83.9763 85.346H85.0783ZM75.5783 85.612H74.1723C74.1723 86.106 74.4763 86.258 74.8183 86.258C75.0463 86.258 75.2743 86.22 75.4263 86.106V86.41C75.2363 86.486 74.9703 86.524 74.7803 86.524C74.2483 86.524 73.8303 86.182 73.8303 85.498C73.8303 84.928 74.1343 84.472 74.7043 84.472C75.3883 84.51 75.6163 84.928 75.5783 85.612ZM75.2743 85.346C75.2743 84.966 75.0463 84.776 74.7423 84.776C74.3623 84.776 74.1723 85.004 74.1723 85.346H75.2743ZM55.7423 85.612H54.2983C54.2983 86.106 54.6023 86.258 54.9443 86.258C55.1723 86.258 55.4003 86.22 55.5523 86.106V86.41C55.3623 86.486 55.0963 86.524 54.9063 86.524C54.3743 86.524 53.9563 86.182 53.9563 85.498C53.9563 84.928 54.2603 84.472 54.8303 84.472C55.5143 84.51 55.7423 84.928 55.7423 85.612ZM55.4003 85.346C55.4003 84.966 55.1723 84.776 54.8683 84.776C54.4883 84.776 54.2983 85.004 54.2983 85.346H55.4003ZM45.2543 85.612H43.8483C43.8483 86.106 44.1523 86.258 44.4943 86.258C44.7223 86.258 44.9503 86.22 45.1023 86.106V86.41C44.9123 86.486 44.6463 86.524 44.4563 86.524C43.9243 86.524 43.5063 86.182 43.5063 85.498C43.5063 84.928 43.8103 84.472 44.3803 84.472C45.0643 84.51 45.2923 84.928 45.2543 85.612ZM44.9503 85.346C44.9503 84.966 44.7223 84.776 44.4183 84.776C44.0383 84.776 43.8483 85.004 43.8483 85.346H44.9503ZM70.0303 86.486H69.7263V84.548H69.9923V86.068C70.0303 85.954 70.1063 85.84 70.1823 85.764L71.0183 84.548H71.3223V86.486H71.0563V84.966C71.0183 85.08 70.9423 85.194 70.8663 85.27L70.0303 86.486ZM40.2383 86.486H39.9343V84.548H40.2003V86.068C40.2383 85.954 40.3143 85.84 40.3903 85.726L41.1883 84.548H41.4923V86.486H41.2263V84.966C41.1883 85.08 41.1123 85.194 41.0363 85.308L40.2383 86.486ZM76.3383 86.258V87.36H76.0343V84.548H76.3003L76.3383 84.814C76.5283 84.586 76.7943 84.51 77.0223 84.548C77.5923 84.548 77.8203 85.042 77.8203 85.574C77.7823 86.106 77.5163 86.562 76.9463 86.562C76.6043 86.524 76.4143 86.372 76.3383 86.258ZM76.3383 85.536C76.3383 85.916 76.4523 86.258 76.9083 86.258C77.3263 86.258 77.4783 85.878 77.5163 85.498C77.5163 85.118 77.4023 84.738 76.9463 84.738C76.4903 84.776 76.3383 85.156 76.3383 85.536Z" fill="white"/>
<path d="M34.9563 86.486H34.6523V84.852H33.6643V86.486H33.3603V84.548H34.9563V86.486Z" fill="white"/>
<path d="M67.1423 84.548L66.3063 86.904C66.1923 87.208 66.0023 87.398 65.6983 87.436C65.6223 87.436 65.5083 87.436 65.4323 87.398V87.094C65.5083 87.132 65.6223 87.132 65.6983 87.132C65.8503 87.094 65.9643 86.98 66.0023 86.828L66.1163 86.524L65.3183 84.586H65.6603L66.2683 86.144L66.8383 84.586L67.1423 84.548Z" fill="white"/>
<path d="M59.9223 28.802C56.8063 28.802 51.6763 28.954 48.6743 29.296C44.5703 29.79 42.9363 31.918 42.5183 35.794C42.1763 38.758 41.9483 43.052 41.9483 47.08C41.9483 51.108 42.0243 55.44 42.5183 58.366C43.1643 62.242 44.9883 64.256 48.7123 64.864C51.6763 65.358 57.1103 65.358 59.9603 65.358C62.7723 65.358 68.2443 65.358 71.2083 64.864C74.9323 64.256 76.7183 62.242 77.4023 58.366C77.9343 55.402 77.9723 50.88 77.9723 47.08C77.9723 43.242 77.6303 38.15 77.4023 35.794C76.9843 31.766 75.2743 29.828 71.2083 29.258C68.2063 28.878 63.0763 28.802 59.9223 28.802ZM72.5763 32.944C73.3743 33.286 74.7803 35.338 74.4383 37.618C72.8803 38.872 71.0183 39.784 69.1943 40.05V54.49H74.5523C74.5523 56.694 74.2103 58.48 73.8303 59.126H63.9883V40.278H57.1483V51.526C57.1483 57.188 53.9563 60 49.8903 60C48.7503 60 47.3823 59.848 46.2043 59.506C45.6723 58.746 45.4063 56.58 45.3303 53.844C48.0283 55.174 51.7143 55.782 52.0183 51.526V41C47.8763 41.456 46.3563 44.344 44.9503 46.282C44.9883 43.698 45.1023 41.38 45.2543 39.784C48.1043 36.706 51.2583 35.3 57.4903 35.3H66.3823C68.5483 35.3 70.6383 34.502 72.5763 32.944Z" fill="white"/>
</svg>
